<?xml version="1.0" encoding="utf-8"?>
<!-- Generator: Adobe Illustrator 25.2.1, SVG Export Plug-In . SVG Version: 6.00 Build 0)  -->
<svg version="1.1" id="Слой_1" xmlns="http://www.w3.org/2000/svg" xmlns:xlink="http://www.w3.org/1999/xlink" x="0px" y="0px"
	 viewBox="0 0 161 113" style="enable-background:new 0 0 161 113;" xml:space="preserve">
<style type="text/css">
	.st0{fill:#FFFFFF;}
	.st1{fill:#3782C4;}
	.st2{fill:#3271B7;}
	.st3{fill:#388CCB;}
	.st4{fill:#41ADE4;}
	.st5{fill:#AAD9F2;}
	.st6{fill:#B2DCF4;}
	.st7{fill:#3F9BD6;}
	.st8{fill:#3FA0DB;}
	.st9{fill:#5EB1E3;}
	.st10{fill:#68BEEA;}
	.st11{fill:#B7E0F0;}
	.st12{fill:#63BBEB;}
</style>
<g>
	<path class="st0" d="M61,111.6h-3.4l-0.6-1.5h-4.6l-0.6,1.5h-3.4l4.3-11.6h3.7L61,111.6z M56.1,107.3l-1.2-4.3l-1.5,4.3H56.1z"/>
	<path class="st0" d="M66.6,111.6h-3.1V100h8.6v2.8h-5.5V111.6z"/>
	<path class="st0" d="M85.5,111.6h-3.4l-0.6-1.5H77l-0.6,1.5H73l4.3-11.6h3.7L85.5,111.6z M80.6,107.3l-1.5-4.3l-1.5,4.3H80.6z"/>
	<path class="st0" d="M92.9,111.9c-1.8,0-3.4-0.6-4.6-1.5c-1.2-0.9-1.8-2.4-1.8-4.3c0-1.8,0.6-3.4,1.8-4.3c1.2-0.9,2.8-1.5,4.6-1.5
		c2.4,0,4,0.9,5.2,3.1l-2.4,1.2c-0.3-0.6-0.6-0.9-0.9-1.2c-0.6-0.3-0.9-0.6-1.5-0.6c-0.9,0-1.8,0.3-2.4,0.9
		c-0.6,0.6-0.9,1.5-0.9,2.4s0.3,1.8,0.9,2.4c0.6,0.6,1.5,0.9,2.4,0.9c0.6,0,0.9-0.3,1.5-0.6c0.6-0.3,0.9-0.6,0.9-1.2l2.4,1.2
		c-0.3,0.9-1.2,1.5-1.8,2.1C95.3,111.6,94.1,111.9,92.9,111.9z"/>
	<path class="st0" d="M102.7,111.9c-1.2,0-2.1-0.3-3.1-0.9l1.2-2.4c0.6,0.3,0.9,0.6,1.5,0.6c0.3,0,0.6,0,0.9-0.3
		c0.3,0,0.3-0.3,0.6-0.6l-4.3-8.3h3.4l2.4,5.5l2.4-5.5h3.4l-4.6,9.2C105.7,111,104.5,111.9,102.7,111.9z"/>
</g>
<polygon class="st1" points="39,40 21.9,72.7 56.1,72.7 "/>
<polygon class="st2" points="19.1,77 2,109.8 36.2,109.8 "/>
<polygon class="st3" points="59.2,2 42.1,34.8 76.3,34.8 "/>
<polygon class="st4" points="102.4,1.4 85.2,34.2 119.5,34.2 "/>
<polygon class="st5" points="122.9,40 105.7,72.7 140,72.7 "/>
<polygon class="st6" points="141.9,77 124.7,109.8 159,109.8 "/>
<polygon class="st7" points="80.9,34.2 98.1,1.4 63.8,1.4 "/>
<polygon class="st8" points="59.2,70.9 76.3,38.2 42.1,38.2 "/>
<polygon class="st9" points="39,108.3 56.1,75.5 21.9,75.5 "/>
<polygon class="st10" points="102.4,71.5 119.5,38.8 85.2,38.8 "/>
<polygon class="st11" points="122,108.3 139.1,75.5 104.8,75.5 "/>
<polygon class="st12" points="80.9,39.1 63.8,71.8 98.1,71.8 "/>
<g>
</g>
<g>
</g>
<g>
</g>
<g>
</g>
<g>
</g>
<g>
</g>
<g>
</g>
<g>
</g>
<g>
</g>
<g>
</g>
<g>
</g>
<g>
</g>
<g>
</g>
<g>
</g>
<g>
</g>
</svg>
