<?xml version="1.0" encoding="utf-8"?>
<!-- Generator: Adobe Illustrator 25.2.1, SVG Export Plug-In . SVG Version: 6.00 Build 0)  -->
<svg version="1.1" id="Слой_1" xmlns="http://www.w3.org/2000/svg" xmlns:xlink="http://www.w3.org/1999/xlink" x="0px" y="0px"
	 viewBox="0 0 136 40" style="enable-background:new 0 0 136 40;" xml:space="preserve">
<style type="text/css">
	.st0{fill:#010101;}
	.st1{fill:#3782C4;}
	.st2{fill:#3271B7;}
	.st3{fill:#388CCB;}
	.st4{fill:#41ADE4;}
	.st5{fill:#AAD9F2;}
	.st6{fill:#B2DCF4;}
	.st7{fill:#3F9BD6;}
	.st8{fill:#3FA0DB;}
	.st9{fill:#5EB1E3;}
	.st10{fill:#68BEEA;}
	.st11{fill:#B7E0F0;}
	.st12{fill:#63BBEB;}
	.st13{fill:#4B4C4C;}
</style>
<g>
	<path class="st0" d="M21,38.1h-1.1l-0.2-0.5h-1.5L18,38.1h-1.1l1.4-3.8h1.2L21,38.1z M19.4,36.7L19,35.3l-0.5,1.4H19.4z"/>
	<path class="st0" d="M22.8,38.1h-1v-3.8h2.8v0.9h-1.8V38.1z"/>
	<path class="st0" d="M29,38.1h-1.1l-0.2-0.5h-1.5L26,38.1h-1.1l1.4-3.8h1.2L29,38.1z M27.4,36.7l-0.5-1.4l-0.5,1.4H27.4z"/>
	<path class="st0" d="M31.4,38.2c-0.6,0-1.1-0.2-1.5-0.5s-0.6-0.8-0.6-1.4c0-0.6,0.2-1.1,0.6-1.4s0.9-0.5,1.5-0.5
		c0.8,0,1.3,0.3,1.7,1l-0.8,0.4c-0.1-0.2-0.2-0.3-0.3-0.4c-0.2-0.1-0.3-0.2-0.5-0.2c-0.3,0-0.6,0.1-0.8,0.3
		c-0.2,0.2-0.3,0.5-0.3,0.8c0,0.3,0.1,0.6,0.3,0.8c0.2,0.2,0.5,0.3,0.8,0.3c0.2,0,0.3-0.1,0.5-0.2c0.2-0.1,0.3-0.2,0.3-0.4l0.8,0.4
		c-0.1,0.3-0.4,0.5-0.6,0.7C32.2,38.1,31.8,38.2,31.4,38.2z"/>
	<path class="st0" d="M34.6,38.2c-0.4,0-0.7-0.1-1-0.3l0.4-0.8c0.2,0.1,0.3,0.2,0.5,0.2c0.1,0,0.2,0,0.3-0.1c0.1,0,0.1-0.1,0.2-0.2
		l-1.4-2.7h1.1l0.8,1.8l0.8-1.8h1.1l-1.5,3C35.6,37.9,35.2,38.2,34.6,38.2z"/>
</g>
<polygon class="st1" points="13.8,14.7 8.2,25.4 19.4,25.4 "/>
<polygon class="st2" points="7.3,26.8 1.7,37.5 12.9,37.5 "/>
<polygon class="st3" points="20.4,2.3 14.8,13 26,13 "/>
<polygon class="st4" points="34.5,2.1 28.9,12.8 40.1,12.8 "/>
<polygon class="st5" points="41.2,14.7 35.6,25.4 46.8,25.4 "/>
<polygon class="st6" points="47.4,26.8 41.8,37.5 53,37.5 "/>
<polygon class="st7" points="27.5,12.8 33.1,2.1 21.9,2.1 "/>
<polygon class="st8" points="20.4,24.8 26,14.1 14.8,14.1 "/>
<polygon class="st9" points="13.8,37 19.4,26.3 8.2,26.3 "/>
<polygon class="st10" points="34.5,25 40.1,14.3 28.9,14.3 "/>
<polygon class="st11" points="40.9,37 46.5,26.3 35.3,26.3 "/>
<polygon class="st12" points="27.5,14.4 21.9,25.1 33.1,25.1 "/>
<g>
	<path class="st13" d="M73.5,29.3h-3.8l-1-2.6H62l-1,2.6h-3.8l6-15.6h4.2L73.5,29.3z M67.8,23.7L65.4,17l-2.4,6.7H67.8z"/>
	<path class="st13" d="M78.2,29.3h-3.3V13.7h11v2.9h-7.7V29.3z"/>
	<path class="st13" d="M102.8,29.3H99l-1-2.6h-6.7l-1,2.6h-3.8l6-15.6h4.2L102.8,29.3z M97.2,23.7L94.7,17l-2.4,6.7H97.2z"/>
	<path class="st13" d="M111.8,29.5c-2.4,0-4.3-0.8-5.9-2.3c-1.6-1.5-2.4-3.4-2.4-5.8c0-2.4,0.8-4.3,2.4-5.8c1.6-1.5,3.6-2.3,5.9-2.3
		c2.9,0,5.1,1.3,6.5,3.8l-2.9,1.4c-0.3-0.7-0.8-1.2-1.5-1.6c-0.7-0.4-1.4-0.6-2.2-0.6c-1.4,0-2.6,0.5-3.5,1.5s-1.4,2.2-1.4,3.7
		s0.5,2.7,1.4,3.7c0.9,1,2.1,1.5,3.5,1.5c0.8,0,1.5-0.2,2.2-0.6c0.7-0.4,1.2-1,1.5-1.6l2.9,1.4C116.9,28.3,114.7,29.5,111.8,29.5z"
		/>
	<path class="st13" d="M122.4,29.5c-0.7,0-1.4-0.1-2-0.3c-0.6-0.2-1.1-0.5-1.5-0.8l1.3-2.7c0.7,0.6,1.4,0.8,2,0.8
		c0.6,0,1-0.1,1.3-0.4c0.3-0.2,0.6-0.7,0.9-1.3l-5.8-11.3h3.8l3.9,8.3l3.9-8.3h3.8l-6.4,12.6c-0.5,1.1-1.2,1.9-2,2.4
		C124.8,29.3,123.7,29.5,122.4,29.5z"/>
</g>
<g>
</g>
<g>
</g>
<g>
</g>
<g>
</g>
<g>
</g>
<g>
</g>
<g>
</g>
<g>
</g>
<g>
</g>
<g>
</g>
<g>
</g>
<g>
</g>
<g>
</g>
<g>
</g>
<g>
</g>
</svg>
