<?xml version="1.0" encoding="UTF-8" standalone="no"?>
<!-- Generator: Adobe Illustrator 19.0.0, SVG Export Plug-In . SVG Version: 6.00 Build 0)  -->

<svg
   xmlns:dc="http://purl.org/dc/elements/1.1/"
   xmlns:cc="http://creativecommons.org/ns#"
   xmlns:rdf="http://www.w3.org/1999/02/22-rdf-syntax-ns#"
   xmlns:svg="http://www.w3.org/2000/svg"
   xmlns="http://www.w3.org/2000/svg"
   xmlns:sodipodi="http://sodipodi.sourceforge.net/DTD/sodipodi-0.dtd"
   xmlns:inkscape="http://www.inkscape.org/namespaces/inkscape"
   version="1.1"
   id="Capa_1"
   x="0px"
   y="0px"
   viewBox="0 0 512.008 512.008"
   style="enable-background:new 0 0 512.008 512.008;"
   xml:space="preserve"
   sodipodi:docname="odnoklassniki.svg"
   inkscape:version="0.92.4 (5da689c313, 2019-01-14)"><metadata
   id="metadata49"><rdf:RDF><cc:Work
       rdf:about=""><dc:format>image/svg+xml</dc:format><dc:type
         rdf:resource="http://purl.org/dc/dcmitype/StillImage" /><dc:title></dc:title></cc:Work></rdf:RDF></metadata><defs
   id="defs47" /><sodipodi:namedview
   pagecolor="#ffffff"
   bordercolor="#666666"
   borderopacity="1"
   objecttolerance="10"
   gridtolerance="10"
   guidetolerance="10"
   inkscape:pageopacity="0"
   inkscape:pageshadow="2"
   inkscape:window-width="640"
   inkscape:window-height="480"
   id="namedview45"
   showgrid="false"
   inkscape:zoom="0.4609303"
   inkscape:cx="256.004"
   inkscape:cy="256.004"
   inkscape:window-x="2127"
   inkscape:window-y="476"
   inkscape:window-maximized="0"
   inkscape:current-layer="Capa_1" />
<g
   id="g6">
	<g
   id="g4">
		<path
   d="M256.002,0c-70.592,0-128,57.408-128,128s57.408,128,128,128s128-57.408,128-128S326.594,0,256.002,0z M256.002,192    c-35.296,0-64-28.704-64-64s28.704-64,64-64s64,28.704,64,64S291.298,192,256.002,192z"
   id="path2" />
	</g>
</g>
<g
   id="g12">
	<g
   id="g10">
		<path
   d="M425.73,252.448c-12.512-12.512-32.736-12.512-45.248,0c-68.608,68.608-180.288,68.608-248.928,0    c-12.512-12.512-32.736-12.512-45.248,0c-12.512,12.512-12.512,32.736,0,45.28c39.808,39.808,90.272,62.496,142.304,68.416    l-91.232,91.232c-12.512,12.512-12.512,32.736,0,45.248s32.736,12.512,45.248,0l73.376-73.376l73.376,73.376    c6.24,6.24,14.432,9.376,22.624,9.376c8.192,0,16.384-3.136,22.624-9.376c12.512-12.512,12.512-32.736,0-45.248l-91.232-91.232    c52.032-5.92,102.496-28.608,142.304-68.416C438.21,285.216,438.21,264.96,425.73,252.448z"
   id="path8" />
	</g>
</g>
<g
   id="g14">
</g>
<g
   id="g16">
</g>
<g
   id="g18">
</g>
<g
   id="g20">
</g>
<g
   id="g22">
</g>
<g
   id="g24">
</g>
<g
   id="g26">
</g>
<g
   id="g28">
</g>
<g
   id="g30">
</g>
<g
   id="g32">
</g>
<g
   id="g34">
</g>
<g
   id="g36">
</g>
<g
   id="g38">
</g>
<g
   id="g40">
</g>
<g
   id="g42">
</g>
</svg>