<?xml version="1.0" encoding="UTF-8" standalone="no"?>
<svg
   xmlns:dc="http://purl.org/dc/elements/1.1/"
   xmlns:cc="http://creativecommons.org/ns#"
   xmlns:rdf="http://www.w3.org/1999/02/22-rdf-syntax-ns#"
   xmlns:svg="http://www.w3.org/2000/svg"
   xmlns="http://www.w3.org/2000/svg"
   xmlns:sodipodi="http://sodipodi.sourceforge.net/DTD/sodipodi-0.dtd"
   xmlns:inkscape="http://www.inkscape.org/namespaces/inkscape"
   class="w-5 h-5 md:w-6 md:h-6"
   viewBox="0 0 2048 1792"
   fill="#fff"
   version="1.1"
   id="svg4"
   sodipodi:docname="vk.svg"
   inkscape:version="0.92.4 (5da689c313, 2019-01-14)">
  <metadata
     id="metadata10">
    <rdf:RDF>
      <cc:Work
         rdf:about="">
        <dc:format>image/svg+xml</dc:format>
        <dc:type
           rdf:resource="http://purl.org/dc/dcmitype/StillImage" />
        <dc:title></dc:title>
      </cc:Work>
    </rdf:RDF>
  </metadata>
  <defs
     id="defs8" />
  <sodipodi:namedview
     pagecolor="#ffffff"
     bordercolor="#666666"
     borderopacity="1"
     objecttolerance="10"
     gridtolerance="10"
     guidetolerance="10"
     inkscape:pageopacity="0"
     inkscape:pageshadow="2"
     inkscape:window-width="640"
     inkscape:window-height="480"
     id="namedview6"
     showgrid="false"
     inkscape:zoom="0.13169643"
     inkscape:cx="1024"
     inkscape:cy="896"
     inkscape:window-x="1863"
     inkscape:window-y="281"
     inkscape:window-maximized="0"
     inkscape:current-layer="svg4" />
  <path
     d="m 1981,462 q 23,64 -150,294 -24,32 -65,85 -40,51 -55,72 -15,21 -30.5,49.5 -15.5,28.5 -12,42 3.5,13.5 13,34.5 9.5,21 32.5,43 23,22 57,53 4,2 5,4 141,131 191,221 3,5 6.5,12.5 3.5,7.5 7,26.5 3.5,19 -0.5,34 -4,15 -25,27.5 -21,12.5 -59,12.5 l -256,4 q -24,5 -56,-5 -32,-10 -52,-22 l -20,-12 q -30,-21 -70,-64 -40,-43 -68.5,-77.5 -28.5,-34.5 -61,-58 -32.5,-23.5 -56.5,-15.5 -3,1 -8,3.5 -5,2.5 -17,14.5 -12,12 -21.5,29.5 -9.5,17.5 -17,52 -7.5,34.5 -6.5,77.5 0,15 -3.5,27.5 -3.5,12.5 -7.5,18.5 l -4,5 q -18,19 -53,22 h -115 q -71,4 -146,-16.5 -75,-20.5 -131.5,-53 -56.5,-32.5 -103,-66 Q 576,1304 552,1280 l -25,-24 Q 517,1246 499.5,1226 482,1206 428,1135 374,1064 322,984 270,904 199.5,773 129,642 69,501 q -6,-16 -6,-27 0,-11 3,-16 l 4,-6 q 15,-19 57,-19 l 274,-2 q 12,2 23,6.5 11,4.5 16,8.5 l 5,3 q 16,11 24,32 20,50 46,103.5 26,53.5 41,81.5 l 16,29 q 29,60 56,104 27,44 48.5,68.5 21.5,24.5 41.5,38.5 20,14 34,14 14,0 27,-5 2,-1 5,-5 3,-4 12,-22 9,-18 13.5,-47 4.5,-29 9.5,-81 5,-52 0,-125 -2,-40 -9,-73 -7,-33 -14,-46 l -6,-12 q -25,-34 -85,-43 -13,-2 5,-24 16,-19 38,-30 53,-26 239,-24 82,1 135,13 20,5 33.5,13.5 13.5,8.5 20.5,24 7,15.5 10.5,32 3.5,16.5 3.5,45.5 0,29 -1,55 -1,26 -2.5,70.5 -1.5,44.5 -1.5,82.5 0,11 -1,42 -1,31 -0.5,48 0.5,17 3.5,40.5 3,23.5 11.5,39 8.5,15.5 22.5,24.5 8,2 17,4 9,2 26,-11 17,-13 38,-34.5 21,-21.5 52,-67 31,-45.5 68,-107.5 60,-104 107,-225 4,-10 10,-17.5 6,-7.5 11,-10.5 l 4,-3 5,-2.5 13,-3 20,-0.5 288,-2 q 39,-5 64,2.5 25,7.5 31,16.5 z"
     id="path2"
     style="fill:#000000"
     inkscape:connector-curvature="0" />
</svg>
