<?xml version="1.0" encoding="utf-8"?>
<!-- Generator: Adobe Illustrator 25.2.1, SVG Export Plug-In . SVG Version: 6.00 Build 0)  -->
<svg version="1.1" id="Слой_1" xmlns="http://www.w3.org/2000/svg" xmlns:xlink="http://www.w3.org/1999/xlink" x="0px" y="0px"
	 viewBox="0 0 147 40" style="enable-background:new 0 0 147 40;" xml:space="preserve">
<style type="text/css">
	.st0{fill:#4B4C4C;}
	.st1{fill:#010101;}
	.st2{fill:#3782C4;}
	.st3{fill:#3271B7;}
	.st4{fill:#388CCB;}
	.st5{fill:#41ADE4;}
	.st6{fill:#AAD9F2;}
	.st7{fill:#B2DCF4;}
	.st8{fill:#3F9BD6;}
	.st9{fill:#3FA0DB;}
	.st10{fill:#5EB1E3;}
	.st11{fill:#68BEEA;}
	.st12{fill:#B7E0F0;}
	.st13{fill:#63BBEB;}
</style>
<g>
	<path class="st0" d="M74.4,29h-4.6L69,26.7h-6.2L62,29h-4.6l5.9-15.8h5.1L74.4,29z M67.9,23.2l-2-5.9l-2,5.9H67.9z"/>
	<path class="st0" d="M81.8,29h-4.1V13.2h11.6v3.6h-7.5V29z"/>
	<path class="st0" d="M107.5,29h-4.6l-0.8-2.3h-6.2L95.1,29h-4.6l5.9-15.8h5.1L107.5,29z M101,23.2l-2-5.9l-2,5.9H101z"/>
	<path class="st0" d="M117.8,29.3c-2.4,0-4.5-0.8-6.1-2.3c-1.6-1.5-2.4-3.5-2.4-5.9c0-2.4,0.8-4.4,2.4-5.9c1.6-1.5,3.7-2.3,6.1-2.3
		c3.2,0,5.5,1.4,6.9,4.2l-3.5,1.7c-0.3-0.6-0.7-1.2-1.3-1.6s-1.3-0.7-2-0.7c-1.3,0-2.3,0.4-3.2,1.3c-0.8,0.9-1.2,2-1.2,3.3
		c0,1.3,0.4,2.4,1.2,3.3c0.8,0.9,1.9,1.3,3.2,1.3c0.7,0,1.4-0.2,2-0.7s1.1-1,1.3-1.6l3.5,1.7c-0.6,1.2-1.5,2.2-2.6,3
		C121,28.9,119.6,29.3,117.8,29.3z"/>
	<path class="st0" d="M131.1,29.3c-1.7,0-3-0.4-4-1.2l1.6-3.2c0.7,0.5,1.4,0.8,2,0.8c0.5,0,0.9-0.1,1.1-0.3c0.3-0.2,0.5-0.5,0.8-0.9
		l-5.7-11.3h4.6l3.4,7.4l3.4-7.4h4.6l-6.4,12.7C135.4,28.1,133.6,29.3,131.1,29.3z"/>
</g>
<g>
	<path class="st1" d="M21,38.1h-1.1l-0.2-0.5h-1.5L18,38.1h-1.1l1.4-3.8h1.2L21,38.1z M19.4,36.7L19,35.3l-0.5,1.4H19.4z"/>
	<path class="st1" d="M22.8,38.1h-1v-3.8h2.8v0.9h-1.8V38.1z"/>
	<path class="st1" d="M29,38.1h-1.1l-0.2-0.5h-1.5L26,38.1h-1.1l1.4-3.8h1.2L29,38.1z M27.4,36.7l-0.5-1.4l-0.5,1.4H27.4z"/>
	<path class="st1" d="M31.4,38.2c-0.6,0-1.1-0.2-1.5-0.5s-0.6-0.8-0.6-1.4c0-0.6,0.2-1.1,0.6-1.4s0.9-0.5,1.5-0.5
		c0.8,0,1.3,0.3,1.7,1l-0.8,0.4c-0.1-0.2-0.2-0.3-0.3-0.4c-0.2-0.1-0.3-0.2-0.5-0.2c-0.3,0-0.6,0.1-0.8,0.3
		c-0.2,0.2-0.3,0.5-0.3,0.8c0,0.3,0.1,0.6,0.3,0.8c0.2,0.2,0.5,0.3,0.8,0.3c0.2,0,0.3-0.1,0.5-0.2c0.2-0.1,0.3-0.2,0.3-0.4l0.8,0.4
		c-0.1,0.3-0.4,0.5-0.6,0.7C32.2,38.1,31.8,38.2,31.4,38.2z"/>
	<path class="st1" d="M34.6,38.2c-0.4,0-0.7-0.1-1-0.3l0.4-0.8c0.2,0.1,0.3,0.2,0.5,0.2c0.1,0,0.2,0,0.3-0.1c0.1,0,0.1-0.1,0.2-0.2
		l-1.4-2.7h1.1l0.8,1.8l0.8-1.8h1.1l-1.5,3C35.6,37.9,35.2,38.2,34.6,38.2z"/>
</g>
<polygon class="st2" points="13.8,14.7 8.2,25.4 19.4,25.4 "/>
<polygon class="st3" points="7.3,26.8 1.7,37.5 12.9,37.5 "/>
<polygon class="st4" points="20.4,2.3 14.8,13 26,13 "/>
<polygon class="st5" points="34.5,2.1 28.9,12.8 40.1,12.8 "/>
<polygon class="st6" points="41.2,14.7 35.6,25.4 46.8,25.4 "/>
<polygon class="st7" points="47.4,26.8 41.8,37.5 53,37.5 "/>
<polygon class="st8" points="27.5,12.8 33.1,2.1 21.9,2.1 "/>
<polygon class="st9" points="20.4,24.8 26,14.1 14.8,14.1 "/>
<polygon class="st10" points="13.8,37 19.4,26.3 8.2,26.3 "/>
<polygon class="st11" points="34.5,25 40.1,14.3 28.9,14.3 "/>
<polygon class="st12" points="40.9,37 46.5,26.3 35.3,26.3 "/>
<polygon class="st13" points="27.5,14.4 21.9,25.1 33.1,25.1 "/>
<g>
</g>
<g>
</g>
<g>
</g>
<g>
</g>
<g>
</g>
<g>
</g>
<g>
</g>
<g>
</g>
<g>
</g>
<g>
</g>
<g>
</g>
<g>
</g>
<g>
</g>
<g>
</g>
<g>
</g>
</svg>
