<?xml version="1.0" encoding="utf-8"?>
<!-- Generator: Adobe Illustrator 23.0.3, SVG Export Plug-In . SVG Version: 6.00 Build 0)  -->
<svg version="1.1" id="Слой_1" xmlns="http://www.w3.org/2000/svg" xmlns:xlink="http://www.w3.org/1999/xlink" x="0px" y="0px"
	 viewBox="0 0 398 93" style="enable-background:new 0 0 398 93;" xml:space="preserve">
<style type="text/css">
	.st0{fill:#4B4C4C;}
	.st1{fill:#010101;}
	.st2{fill:#3782C4;}
	.st3{fill:#3271B7;}
	.st4{fill:#388CCB;}
	.st5{fill:#41ADE4;}
	.st6{fill:#AAD9F2;}
	.st7{fill:#B2DCF4;}
	.st8{fill:#3F9BD6;}
	.st9{fill:#3FA0DB;}
	.st10{fill:#5EB1E3;}
	.st11{fill:#68BEEA;}
	.st12{fill:#B7E0F0;}
	.st13{fill:#63BBEB;}
</style>
<g>
	<path class="st0" d="M142.5,128.8h-1.9l-0.7-1.8h-4.3l-0.7,1.8H133l3.7-9.3h2L142.5,128.8z M139.5,125.6l-1.7-4.5l-1.7,4.5H139.5z"
		/>
	<path class="st0" d="M148,129c-1.4,0-2.6-0.5-3.5-1.3c-0.9-0.9-1.4-2.1-1.4-3.5c0-1.4,0.5-2.6,1.4-3.5c0.9-0.9,2.1-1.4,3.5-1.4
		c1.6,0,2.9,0.7,3.8,2.1l-1.4,0.7c-0.2-0.4-0.6-0.7-1-1c-0.4-0.2-0.9-0.4-1.4-0.4c-0.9,0-1.7,0.3-2.3,1c-0.6,0.7-0.9,1.4-0.9,2.4
		s0.3,1.8,0.9,2.4c0.6,0.6,1.4,1,2.3,1c0.5,0,0.9-0.1,1.4-0.4s0.8-0.6,1-1l1.4,0.7C150.8,128.3,149.6,129,148,129z"/>
	<path class="st0" d="M156.9,128.8h-1.6v-7.9h-2.8v-1.4h7.3v1.4H157L156.9,128.8L156.9,128.8z"/>
	<path class="st0" d="M162.8,128.8h-1.6v-9.3h4.1c0.9,0,1.7,0.3,2.2,0.8s0.8,1.3,0.8,2.1c0,0.8-0.3,1.5-0.8,2.1
		c-0.6,0.6-1.3,0.9-2.2,0.9h-2.5V128.8z M165,123.9c0.5,0,0.9-0.1,1.1-0.4c0.3-0.3,0.4-0.6,0.4-1.1s-0.1-0.8-0.4-1.1
		c-0.3-0.3-0.7-0.4-1.1-0.4h-2.2v3H165L165,123.9z"/>
	<path class="st0" d="M178,128.8h-1.9l-0.7-1.8h-4.3l-0.7,1.8h-1.9l3.7-9.3h2L178,128.8z M175,125.6l-1.7-4.5l-1.7,4.5H175z"/>
	<path class="st0" d="M187.3,128.8h-2l-2.6-3.7l-2.6,3.7h-2l3.5-4.8l-3.3-4.5h2l2.4,3.4l2.4-3.4h2l-3.3,4.5L187.3,128.8z"/>
	<path class="st0" d="M196.7,128.8h-1.9l-0.7-1.8h-4.3l-0.7,1.8h-1.9l3.7-9.3h2L196.7,128.8z M193.7,125.6l-1.7-4.5l-1.7,4.5H193.7z
		"/>
	<path class="st0" d="M205.9,128.8h-1.6v-4.1h-4.9v4.1h-1.6v-9.3h1.6v3.8h4.9v-3.8h1.6V128.8z"/>
	<path class="st0" d="M212.3,129c-1.4,0-2.6-0.5-3.5-1.3c-0.9-0.9-1.4-2.1-1.4-3.5c0-1.4,0.5-2.6,1.4-3.5c0.9-0.9,2.1-1.4,3.5-1.4
		c1.6,0,2.9,0.7,3.8,2.1l-1.4,0.7c-0.2-0.4-0.6-0.7-1-1c-0.4-0.2-0.9-0.4-1.4-0.4c-0.9,0-1.7,0.3-2.3,1c-0.6,0.7-0.9,1.4-0.9,2.4
		s0.3,1.8,0.9,2.4s1.4,1,2.3,1c0.5,0,0.9-0.1,1.4-0.4s0.8-0.6,1-1l1.4,0.7C215.2,128.3,213.9,129,212.3,129z"/>
	<path class="st0" d="M225,128.8h-2l-3.1-3.9l-0.8,1v3h-1.6v-9.3h1.6v4.4l3.6-4.5h2l-3.8,4.4L225,128.8z"/>
	<path class="st0" d="M227.7,128.8h-1.6v-9.3h1.6v6.5l4.8-6.5h1.7v9.3h-1.6v-6.7L227.7,128.8z"/>
	<path class="st0" d="M237.8,128.8h-1.6v-9.3h1.6v6.5l4.8-6.5h1.7v9.3h-1.7v-6.7L237.8,128.8z M242.7,117.8
		c-0.6,0.8-1.4,1.2-2.4,1.2s-1.8-0.4-2.5-1.2l0.7-0.6c0.4,0.6,1,0.9,1.8,0.9c0.8,0,1.3-0.3,1.8-0.9L242.7,117.8z"/>
	<path class="st0" d="M251.5,128.8h-1.6v-9.3h6.4v1.4h-4.8V128.8L251.5,128.8z"/>
	<path class="st0" d="M265.5,127.6c-0.9,0.9-2,1.4-3.4,1.4s-2.5-0.5-3.4-1.4s-1.3-2.1-1.3-3.5s0.5-2.5,1.3-3.5
		c0.9-0.9,2-1.4,3.4-1.4s2.5,0.5,3.4,1.4s1.3,2.1,1.3,3.5C266.8,125.6,266.4,126.7,265.5,127.6z M262.1,127.5c0.9,0,1.7-0.3,2.2-1
		c0.6-0.6,0.9-1.4,0.9-2.4s-0.3-1.8-0.9-2.4c-0.6-0.6-1.3-1-2.2-1c-0.9,0-1.7,0.3-2.2,1c-0.6,0.6-0.9,1.4-0.9,2.4s0.3,1.8,0.9,2.4
		C260.4,127.2,261.1,127.5,262.1,127.5z"/>
	<path class="st0" d="M272.9,129c-1.4,0-2.6-0.5-3.5-1.3c-0.9-0.9-1.4-2.1-1.4-3.5c0-1.4,0.5-2.6,1.4-3.5c0.9-0.9,2.1-1.4,3.5-1.4
		c1.6,0,2.9,0.7,3.8,2.1l-1.4,0.7c-0.2-0.4-0.6-0.7-1-1c-0.4-0.2-0.9-0.4-1.4-0.4c-0.9,0-1.7,0.3-2.3,1c-0.6,0.7-0.9,1.4-0.9,2.4
		s0.3,1.8,0.9,2.4s1.4,1,2.3,1c0.5,0,1-0.1,1.4-0.4s0.8-0.6,1-1l1.4,0.7C275.8,128.3,274.5,129,272.9,129z"/>
	<path class="st0" d="M279.1,129c-0.4,0-0.8-0.1-1.1-0.2c-0.4-0.1-0.6-0.3-0.8-0.5l0.6-1.3c0.4,0.3,0.8,0.5,1.2,0.5
		c0.4,0,0.6-0.1,0.9-0.3c0.3-0.2,0.4-0.5,0.7-0.9l-3.5-6.9h1.9l2.6,5.5l2.6-5.5h1.9l-3.9,7.6c-0.3,0.6-0.7,1.1-1.1,1.4
		C280.4,128.8,279.8,129,279.1,129z"/>
	<path class="st0" d="M286.3,130.6v-3c0.4,0,0.7-0.1,0.9-0.3c0.2-0.2,0.4-0.5,0.6-0.9c0.2-0.5,0.3-1.2,0.4-2l0.5-4.8h6.3v7.9h0.9
		v3.2h-1.6V129H288v1.7L286.3,130.6L286.3,130.6z M289.8,124.4c-0.2,1.4-0.6,2.4-1.2,3h4.9V121h-3.2L289.8,124.4z"/>
	<path class="st0" d="M305.6,128.8h-1.9L303,127h-4.3l-0.7,1.8h-1.9l3.7-9.3h2L305.6,128.8z M302.5,125.6l-1.7-4.5l-1.7,4.5H302.5z"
		/>
	<path class="st0" d="M308.2,128.8h-1.6v-9.3h4.1c0.9,0,1.7,0.3,2.2,0.8s0.8,1.3,0.8,2.1c0,0.8-0.3,1.5-0.8,2.1s-1.3,0.9-2.2,0.9
		h-2.5V128.8z M310.5,123.9c0.5,0,0.9-0.1,1.1-0.4c0.3-0.3,0.5-0.6,0.5-1.1s-0.1-0.8-0.5-1.1c-0.3-0.3-0.7-0.4-1.1-0.4h-2.2v3H310.5
		L310.5,123.9z"/>
	<path class="st0" d="M319.6,129c-1.4,0-2.6-0.5-3.5-1.3c-0.9-0.9-1.4-2.1-1.4-3.5c0-1.4,0.5-2.6,1.4-3.5c0.9-0.9,2.1-1.4,3.5-1.4
		c1.6,0,2.9,0.7,3.8,2.1l-1.4,0.7c-0.2-0.4-0.6-0.7-1-1c-0.4-0.2-0.9-0.4-1.4-0.4c-0.9,0-1.7,0.3-2.3,1c-0.6,0.7-0.9,1.4-0.9,2.4
		s0.3,1.8,0.9,2.4s1.4,1,2.3,1c0.5,0,1-0.1,1.4-0.4s0.8-0.6,1-1l1.4,0.7C322.4,128.3,321.2,129,319.6,129z"/>
	<path class="st0" d="M328.5,128.8h-1.6v-7.9h-2.8v-1.4h7.3v1.4h-2.8L328.5,128.8L328.5,128.8z"/>
	<path class="st0" d="M337.4,128.8h-4.7v-9.3h4.6c0.8,0,1.5,0.2,2,0.7s0.7,1,0.7,1.7c0,0.6-0.2,1-0.5,1.4c-0.3,0.4-0.7,0.6-1.2,0.7
		c0.5,0.1,0.9,0.3,1.3,0.8c0.4,0.4,0.5,0.9,0.5,1.5c0,0.8-0.2,1.3-0.7,1.8C338.9,128.6,338.3,128.8,337.4,128.8z M337,123.4
		c0.4,0,0.7-0.1,1-0.3s0.4-0.5,0.4-0.9c0-0.4-0.1-0.7-0.4-0.9c-0.3-0.2-0.6-0.3-1-0.3h-2.6v2.4H337L337,123.4z M337,127.4
		c0.5,0,0.8-0.1,1-0.3c0.2-0.2,0.4-0.5,0.4-1c0-0.4-0.1-0.7-0.4-0.9c-0.3-0.2-0.6-0.4-1-0.4h-2.7v2.6H337z"/>
	<path class="st0" d="M348.2,128.8h-6.4v-9.3h6.4v1.4h-4.8v2.4h4.7v1.4h-4.7v2.6h4.8V128.8z"/>
	<path class="st0" d="M358,128.8h-1.6v-4.1h-4.9v4.1h-1.6v-9.3h1.6v3.8h4.9v-3.8h1.6V128.8z"/>
	<path class="st0" d="M368.1,128.8h-1.6v-4.1h-4.9v4.1H360v-9.3h1.6v3.8h4.9v-3.8h1.6V128.8z"/>
	<path class="st0" d="M370.1,119.5h1.6v3.5h2.5c0.9,0,1.7,0.3,2.2,0.9c0.5,0.6,0.8,1.3,0.8,2.1c0,0.8-0.3,1.5-0.8,2.1
		c-0.5,0.6-1.3,0.8-2.2,0.8h-4.1V119.5z M374,124.4h-2.2v3h2.2c0.5,0,0.9-0.1,1.1-0.4s0.5-0.6,0.5-1.1s-0.1-0.8-0.5-1.1
		C374.7,124.5,374.5,124.4,374,124.4z M379.8,128.8h-1.6v-9.3h1.6V128.8z"/>
	<path class="st0" d="M383.3,128.8h-1.6v-9.3h1.6v6.5l4.8-6.5h1.7v9.3h-1.6v-6.7L383.3,128.8z M388.2,117.8
		c-0.6,0.8-1.4,1.2-2.5,1.2c-1,0-1.8-0.4-2.5-1.2l0.7-0.6c0.5,0.6,1,0.9,1.8,0.9s1.3-0.3,1.8-0.9L388.2,117.8z"/>
	<path class="st0" d="M142.5,145.6h-1.9l-0.7-1.8h-4.3l-0.7,1.8H133l3.7-9.3h2L142.5,145.6z M139.5,142.4l-1.7-4.5l-1.7,4.5H139.5z"
		/>
	<path class="st0" d="M145.1,145.6h-1.6v-9.3h4.1c0.9,0,1.7,0.3,2.2,0.8s0.8,1.3,0.8,2.1s-0.3,1.5-0.8,2.1c-0.5,0.6-1.3,0.8-2.2,0.8
		h-2.5V145.6z M147.4,140.7c0.5,0,0.9-0.1,1.1-0.4c0.3-0.3,0.4-0.6,0.4-1.1s-0.1-0.8-0.4-1.1c-0.3-0.3-0.7-0.4-1.1-0.4h-2.2v3H147.4
		L147.4,140.7z"/>
	<path class="st0" d="M160.2,145.6h-2l-2.6-3.6l-2.6,3.7h-2l3.5-4.8l-3.3-4.5h2l2.4,3.4l2.4-3.4h2l-3.3,4.5L160.2,145.6z"/>
	<path class="st0" d="M162.8,145.6h-1.6v-9.3h1.6v6.5l4.8-6.5h1.7v9.3h-1.6V139L162.8,145.6z"/>
	<path class="st0" d="M175.2,145.6h-1.6v-7.9h-2.8v-1.4h7.3v1.4h-2.8L175.2,145.6L175.2,145.6z"/>
	<path class="st0" d="M185.8,145.6h-6.4v-9.3h6.4v1.4H181v2.4h4.7v1.4H181v2.6h4.8V145.6z"/>
	<path class="st0" d="M195.1,145.6h-2l-3.1-3.9l-0.8,1v3h-1.6v-9.3h1.6v4.5l3.6-4.5h2l-3.8,4.4L195.1,145.6z"/>
	<path class="st0" d="M200.1,145.6h-1.6v-7.9h-2.9v-1.4h7.3v1.4h-2.8V145.6L200.1,145.6z"/>
	<path class="st0" d="M205.4,145.8c-0.4,0-0.8-0.1-1.1-0.2c-0.3-0.1-0.6-0.3-0.8-0.5l0.6-1.3c0.4,0.4,0.8,0.5,1.2,0.5
		s0.6-0.1,0.9-0.3s0.4-0.5,0.7-0.9l-3.5-6.9h1.9l2.6,5.5l2.6-5.5h1.9l-3.9,7.6c-0.3,0.6-0.7,1.1-1.1,1.4
		C206.7,145.7,206.1,145.8,205.4,145.8z"/>
	<path class="st0" d="M214.8,145.6h-1.6v-9.3h4.1c0.9,0,1.7,0.3,2.2,0.8s0.8,1.3,0.8,2.1s-0.3,1.5-0.8,2.1c-0.5,0.6-1.3,0.8-2.2,0.8
		h-2.5V145.6z M217.1,140.7c0.5,0,0.9-0.1,1.1-0.4c0.3-0.3,0.4-0.6,0.4-1.1s-0.1-0.8-0.4-1.1c-0.3-0.3-0.7-0.4-1.1-0.4h-2.2v3H217.1
		L217.1,140.7z"/>
	<path class="st0" d="M229.8,145.6h-1.6v-4.1h-4.9v4.1h-1.6v-9.3h1.6v3.8h4.9v-3.8h1.6V145.6z"/>
	<path class="st0" d="M239.6,144.4c-0.9,0.9-2,1.4-3.4,1.4s-2.5-0.5-3.4-1.4c-0.9-0.9-1.3-2.1-1.3-3.5c0-1.4,0.4-2.5,1.3-3.5
		c0.9-0.9,2-1.4,3.4-1.4s2.5,0.5,3.4,1.4c0.9,0.9,1.3,2.1,1.3,3.5C241,142.4,240.5,143.5,239.6,144.4z M236.2,144.3
		c0.9,0,1.7-0.3,2.2-1c0.5-0.7,0.9-1.4,0.9-2.4s-0.3-1.8-0.9-2.4c-0.6-0.6-1.3-1-2.2-1s-1.7,0.3-2.2,1c-0.6,0.6-0.9,1.4-0.9,2.4
		s0.3,1.8,0.9,2.4C234.5,144,235.2,144.3,236.2,144.3z"/>
	<path class="st0" d="M248.9,142.9h-3.3v-1.3h3.4L248.9,142.9L248.9,142.9z"/>
	<path class="st0" d="M258.4,145.8c-1.4,0-2.6-0.5-3.5-1.3c-0.9-0.9-1.4-2.1-1.4-3.5c0-1.4,0.5-2.6,1.4-3.5c0.9-0.9,2.1-1.3,3.5-1.3
		c1.6,0,2.9,0.7,3.8,2.1l-1.4,0.7c-0.2-0.4-0.6-0.7-1-1c-0.4-0.2-0.9-0.4-1.4-0.4c-0.9,0-1.7,0.3-2.3,1c-0.6,0.7-0.9,1.4-0.9,2.4
		s0.3,1.8,0.9,2.4c0.6,0.6,1.4,1,2.3,1c0.5,0,1-0.1,1.4-0.4s0.8-0.6,1-1l1.4,0.7C261.3,145.1,260,145.8,258.4,145.8z"/>
	<path class="st0" d="M267.3,145.6h-1.6v-7.9h-2.8v-1.4h7.3v1.4h-2.8L267.3,145.6L267.3,145.6z"/>
	<path class="st0" d="M273.2,145.6h-1.6v-9.3h4.1c0.9,0,1.7,0.3,2.2,0.8s0.8,1.3,0.8,2.1s-0.3,1.5-0.8,2.1c-0.5,0.6-1.3,0.8-2.2,0.8
		h-2.5V145.6z M275.4,140.7c0.5,0,0.9-0.1,1.1-0.4c0.3-0.3,0.5-0.6,0.5-1.1s-0.1-0.8-0.5-1.1c-0.3-0.3-0.7-0.4-1.1-0.4h-2.2v3H275.4
		L275.4,140.7z"/>
	<path class="st0" d="M287.8,144.4c-0.9,0.9-2,1.4-3.4,1.4s-2.5-0.5-3.4-1.4c-0.9-0.9-1.3-2.1-1.3-3.5c0-1.4,0.5-2.5,1.3-3.5
		c0.9-0.9,2-1.4,3.4-1.4s2.5,0.5,3.4,1.4c0.9,0.9,1.3,2.1,1.3,3.5C289.2,142.4,288.7,143.5,287.8,144.4z M284.4,144.3
		c0.9,0,1.7-0.3,2.2-1c0.5-0.7,0.9-1.4,0.9-2.4s-0.3-1.8-0.9-2.4c-0.6-0.6-1.3-1-2.2-1c-0.9,0-1.7,0.3-2.2,1
		c-0.6,0.6-0.9,1.4-0.9,2.4s0.3,1.8,0.9,2.4C282.7,144,283.5,144.3,284.4,144.3z"/>
	<path class="st0" d="M292.4,145.6h-1.6v-9.3h1.6v6.5l4.8-6.5h1.7v9.3h-1.6V139L292.4,145.6z"/>
	<path class="st0" d="M304.7,145.6h-1.6v-7.9h-2.8v-1.4h7.3v1.4h-2.8L304.7,145.6L304.7,145.6z"/>
	<path class="st0" d="M315.3,145.6h-6.4v-9.3h6.4v1.4h-4.7v2.4h4.7v1.4h-4.7v2.6h4.8L315.3,145.6L315.3,145.6z"/>
	<path class="st0" d="M316.4,145.8v-1.5c0.5,0,1-0.2,1.2-0.6c0.3-0.4,0.5-1.3,0.6-2.6l0.5-4.8h6.3v9.3h-1.6v-7.9h-3.2l-0.4,3.5
		c-0.1,1-0.3,1.8-0.5,2.4c-0.2,0.6-0.5,1.1-0.8,1.4s-0.6,0.5-1,0.6C317.1,145.7,316.9,145.8,316.4,145.8z"/>
	<path class="st0" d="M327.1,136.3h1.6v3.5h2.5c0.9,0,1.7,0.3,2.2,0.8c0.5,0.6,0.8,1.3,0.8,2.1s-0.3,1.5-0.8,2.1
		c-0.5,0.6-1.3,0.8-2.2,0.8h-4.1V136.3z M331,141.2h-2.2v3h2.2c0.5,0,0.9-0.1,1.1-0.4s0.5-0.6,0.5-1.1s-0.1-0.8-0.5-1.1
		C331.7,141.3,331.5,141.2,331,141.2z"/>
	<path class="st0" d="M343.8,145.6h-1.6v-4.1h-4.9v4.1h-1.7v-9.3h1.6v3.8h4.9v-3.8h1.6v9.3H343.8z"/>
	<path class="st0" d="M345.8,136.3h1.6v3.5h2.5c0.9,0,1.7,0.3,2.2,0.8c0.5,0.6,0.8,1.3,0.8,2.1s-0.3,1.5-0.8,2.1
		c-0.5,0.6-1.3,0.8-2.2,0.8h-4.1V136.3z M349.6,141.2h-2.2v3h2.2c0.5,0,0.9-0.1,1.1-0.4s0.5-0.6,0.5-1.1s-0.1-0.8-0.5-1.1
		C350.3,141.3,350.1,141.2,349.6,141.2z M355.4,145.6h-1.6v-9.3h1.6V145.6z"/>
	<path class="st0" d="M359,145.6h-1.6v-9.3h1.6v6.5l4.8-6.5h1.7v9.3h-1.6V139L359,145.6z M363.9,134.6c-0.6,0.8-1.4,1.2-2.5,1.2
		c-1,0-1.8-0.4-2.5-1.2l0.7-0.6c0.5,0.6,1,0.9,1.8,0.9s1.3-0.3,1.8-0.9L363.9,134.6z"/>
	<path class="st0" d="M135.2,162.6c-0.4,0-0.8-0.1-1.1-0.2c-0.3-0.1-0.6-0.3-0.8-0.4l0.6-1.3c0.4,0.4,0.8,0.5,1.2,0.5
		s0.6-0.1,0.9-0.3c0.2-0.2,0.4-0.5,0.7-0.9l-3.5-6.9h1.9l2.6,5.4l2.6-5.5h1.9l-3.9,7.6c-0.3,0.6-0.7,1.1-1.1,1.4
		C136.5,162.4,135.9,162.6,135.2,162.6z"/>
	<path class="st0" d="M151.1,162.4h-1.6v-4.1h-4.9v4.1H143v-9.3h1.6v3.8h4.9v-3.8h1.6V162.4z"/>
	<path class="st0" d="M154.7,162.4h-1.6v-9.3h1.6v6.5l4.8-6.5h1.7v9.3h-1.6v-6.7L154.7,162.4z"/>
	<path class="st0" d="M167.9,162.4h-4.7v-9.3h4.6c0.8,0,1.5,0.2,1.9,0.7s0.7,1,0.7,1.7c0,0.6-0.2,1-0.5,1.4
		c-0.3,0.4-0.7,0.6-1.2,0.7c0.5,0.1,0.9,0.3,1.3,0.8c0.4,0.4,0.5,0.9,0.5,1.5c0,0.8-0.2,1.3-0.7,1.8S168.8,162.4,167.9,162.4z
		 M167.5,157c0.4,0,0.7-0.1,1-0.3c0.2-0.2,0.4-0.5,0.4-0.9c0-0.4-0.1-0.7-0.4-0.9c-0.2-0.2-0.6-0.3-1-0.3h-2.6v2.4H167.5L167.5,157z
		 M167.5,161c0.4,0,0.8-0.1,1.1-0.3c0.3-0.2,0.4-0.6,0.4-1c0-0.4-0.1-0.7-0.4-0.9c-0.3-0.2-0.6-0.4-1.1-0.4h-2.7v2.6H167.5z"/>
	<path class="st0" d="M178.7,162.4h-6.4v-9.3h6.4v1.4h-4.8v2.5h4.7v1.4h-4.7v2.6h4.8V162.4z"/>
	<path class="st0" d="M182,162.4h-1.6v-9.3h4.1c0.9,0,1.7,0.3,2.2,0.8s0.8,1.2,0.8,2.1c0,0.8-0.3,1.5-0.8,2.1
		c-0.5,0.6-1.3,0.8-2.2,0.8H182V162.4z M184.2,157.5c0.5,0,0.9-0.1,1.1-0.4s0.4-0.6,0.4-1.1s-0.1-0.8-0.4-1.1
		c-0.3-0.3-0.7-0.4-1.1-0.4H182v3H184.2L184.2,157.5z"/>
	<path class="st0" d="M193.3,162.6c-1.4,0-2.6-0.4-3.5-1.3c-0.9-0.9-1.4-2.1-1.4-3.5c0-1.4,0.5-2.6,1.4-3.5c0.9-0.9,2.1-1.3,3.5-1.3
		c1.6,0,2.9,0.7,3.8,2.1l-1.4,0.7c-0.2-0.4-0.6-0.7-1-1c-0.4-0.2-0.9-0.4-1.4-0.4c-0.9,0-1.7,0.3-2.3,1s-0.9,1.4-0.9,2.4
		s0.3,1.8,0.9,2.4c0.6,0.6,1.4,0.9,2.3,0.9c0.5,0,0.9-0.1,1.4-0.4s0.8-0.6,1-1l1.4,0.7C196.2,161.9,194.9,162.6,193.3,162.6z"/>
	<path class="st0" d="M200,162.4h-1.6v-9.3h1.6v6.5l4.8-6.5h1.7v9.3h-1.6v-6.7L200,162.4z"/>
	<path class="st0" d="M212.4,162.4h-1.6v-7.9H208v-1.4h7.3v1.4h-2.8L212.4,162.4L212.4,162.4z"/>
	<path class="st0" d="M223,162.4h-6.4v-9.3h6.4v1.4h-4.8v2.5h4.7v1.4h-4.7v2.6h4.8V162.4z"/>
	<path class="st0" d="M228.5,162.4h-1.6v-7.9h-2.8v-1.4h7.3v1.4h-2.8L228.5,162.4L228.5,162.4z"/>
</g>
<g>
	<path class="st1" d="M49.9,91.8h-2.7l-0.5-1.3H43l-0.5,1.3h-2.7l3.5-9.3h3L49.9,91.8z M46,88.4l-1.2-3.5l-1.2,3.5H46z"/>
	<path class="st1" d="M54.2,91.8h-2.4v-9.3h6.8v2.1h-4.4C54.2,84.6,54.2,91.8,54.2,91.8z"/>
	<path class="st1" d="M69.4,91.8h-2.7l-0.5-1.3h-3.7L62,91.8h-2.7l3.5-9.3h3L69.4,91.8z M65.6,88.4l-1.2-3.5l-1.2,3.5H65.6z"/>
	<path class="st1" d="M75.5,92c-1.4,0-2.7-0.4-3.6-1.3s-1.4-2.1-1.4-3.5s0.5-2.6,1.4-3.5s2.2-1.3,3.6-1.3c1.9,0,3.2,0.8,4.1,2.5
		l-2.1,1c-0.2-0.4-0.4-0.7-0.8-1s-0.8-0.4-1.2-0.4c-0.8,0-1.4,0.3-1.9,0.8s-0.7,1.2-0.7,1.9s0.2,1.4,0.7,1.9s1.1,0.8,1.9,0.8
		c0.4,0,0.8-0.1,1.2-0.4s0.6-0.6,0.8-1l2.1,1c-0.3,0.7-0.9,1.3-1.5,1.8C77.4,91.8,76.5,92,75.5,92z"/>
	<path class="st1" d="M83.3,92c-1,0-1.8-0.2-2.4-0.7l0.9-1.9c0.4,0.3,0.8,0.5,1.2,0.5c0.3,0,0.5-0.1,0.7-0.2s0.3-0.3,0.5-0.5
		l-3.4-6.7h2.7l2,4.4l2-4.4h2.7L86.6,90C85.9,91.3,84.8,92,83.3,92z"/>
</g>
<polygon class="st2" points="32.2,34 18.4,60.4 46,60.4 "/>
<polygon class="st3" points="16.2,63.8 2.4,90.2 30,90.2 "/>
<polygon class="st4" points="48.4,3.4 34.6,29.8 62.2,29.8 "/>
<polygon class="st5" points="83,3.1 69.2,29.4 96.8,29.4 "/>
<polygon class="st6" points="99.5,34 85.8,60.4 113.3,60.4 "/>
<polygon class="st7" points="114.9,63.8 101.1,90.2 128.7,90.2 "/>
<polygon class="st8" points="65.9,29.4 79.7,3.1 52.1,3.1 "/>
<polygon class="st9" points="48.4,59 62.2,32.6 34.6,32.6 "/>
<polygon class="st10" points="32.2,89 46,62.6 18.4,62.6 "/>
<polygon class="st11" points="83,59.4 96.8,33 69.2,33 "/>
<polygon class="st12" points="98.7,89.1 112.5,62.8 84.9,62.8 "/>
<polygon class="st13" points="65.9,33.3 52.1,59.7 79.7,59.7 "/>
<g>
	<path class="st0" d="M147.8,21.4h-7.6V10.7h7.6v2h-5.3V15h5.2v2h-5.2v2.4h5.3V21.4z"/>
	<path class="st0" d="M159.2,21.4h-2.3v-4.5h-5v4.5h-2.3V10.7h2.3v4.2h5v-4.2h2.3V21.4z"/>
	<path class="st0" d="M166.3,21.6c-1.6,0-2.9-0.5-4-1.6c-1.1-1-1.6-2.4-1.6-4s0.5-2.9,1.6-4c1.1-1,2.4-1.6,4-1.6c1.6,0,3,0.5,4,1.6
		c1.1,1,1.6,2.4,1.6,4c0,1.6-0.5,2.9-1.6,4C169.3,21.1,168,21.6,166.3,21.6z M164,18.6c0.6,0.7,1.4,1,2.3,1s1.8-0.3,2.4-1
		c0.6-0.7,0.9-1.5,0.9-2.5c0-1-0.3-1.9-0.9-2.5c-0.6-0.7-1.4-1-2.4-1s-1.8,0.3-2.3,1c-0.6,0.7-0.9,1.5-0.9,2.5
		C163.1,17.1,163.4,17.9,164,18.6z"/>
	<path class="st0" d="M178.3,21.4H176v-8.7h-3.1v-2h8.5v2h-3.1V21.4z"/>
	<path class="st0" d="M192.8,21.4h-2.6l-0.7-1.8H185l-0.7,1.8h-2.6l4.1-10.7h2.8L192.8,21.4z M188.9,17.6l-1.7-4.6l-1.7,4.6H188.9z"
		/>
	<path class="st0" d="M201.3,21.4h-7.6V10.7h7.6v2H196V15h5.2v2H196v2.4h5.3V21.4z"/>
	<path class="st0" d="M208.9,21.4h-5.8V10.7h5.6c1,0,1.7,0.3,2.3,0.8c0.5,0.5,0.8,1.2,0.8,1.9c0,0.7-0.2,1.2-0.5,1.6
		c-0.4,0.4-0.8,0.7-1.3,0.8c0.6,0.1,1.1,0.4,1.5,0.9s0.6,1.1,0.6,1.7c0,0.8-0.3,1.5-0.8,2.1C210.6,21.1,209.9,21.4,208.9,21.4z
		 M208.2,15c0.4,0,0.7-0.1,0.9-0.3c0.2-0.2,0.3-0.5,0.3-0.8s-0.1-0.6-0.3-0.8c-0.2-0.2-0.5-0.3-0.9-0.3h-2.8V15H208.2z M208.3,19.4
		c0.4,0,0.8-0.1,1-0.3c0.2-0.2,0.4-0.5,0.4-0.9c0-0.4-0.1-0.6-0.4-0.9c-0.2-0.2-0.6-0.4-1-0.4h-2.9v2.5H208.3z"/>
	<path class="st0" d="M218.9,21.6c-1.6,0-3-0.5-4.1-1.5c-1.1-1-1.6-2.4-1.6-4c0-1.6,0.5-2.9,1.6-4c1.1-1,2.4-1.5,4.1-1.5
		c2,0,3.5,0.9,4.5,2.6l-2,1c-0.2-0.4-0.6-0.8-1-1.1c-0.5-0.3-0.9-0.4-1.5-0.4c-1,0-1.8,0.3-2.4,1c-0.6,0.7-0.9,1.5-0.9,2.5
		c0,1,0.3,1.9,0.9,2.5c0.6,0.7,1.4,1,2.4,1c0.5,0,1-0.1,1.5-0.4s0.8-0.7,1-1.1l2,0.9C222.3,20.7,220.8,21.6,218.9,21.6z"/>
	<path class="st0" d="M233.8,21.4H231l-3.2-4.3l-0.8,1v3.3h-2.3V10.7h2.3v4.8l3.8-4.8h2.8l-4.2,5L233.8,21.4z"/>
	<path class="st0" d="M237.1,21.4h-2.2V10.7h2.3v6.9l4.9-6.9h2.3v10.7h-2.3v-7.2L237.1,21.4z"/>
	<path class="st0" d="M248.7,21.4h-2.2V10.7h2.3v6.9l4.9-6.9h2.3v10.7h-2.3v-7.2L248.7,21.4z M254.1,8.8c-0.7,0.9-1.6,1.4-2.8,1.4
		c-1.2,0-2.1-0.5-2.8-1.4l0.9-0.8c0.5,0.7,1.1,1,1.9,1c0.8,0,1.4-0.3,1.9-1L254.1,8.8z"/>
	<path class="st0" d="M269.2,21.4h-2.3v-1.1c-1.6-0.1-2.9-0.6-3.8-1.3c-0.9-0.7-1.4-1.7-1.4-2.9c0-1.2,0.5-2.2,1.4-2.9
		c0.9-0.7,2.2-1.2,3.8-1.3v-1.1h2.3v1.1c1.6,0.1,2.9,0.6,3.8,1.3c0.9,0.7,1.4,1.7,1.4,2.9c0,1.2-0.5,2.2-1.4,2.9
		c-0.9,0.7-2.2,1.2-3.8,1.3V21.4z M264.8,14.6c-0.5,0.4-0.7,0.9-0.7,1.5s0.2,1.1,0.7,1.5c0.5,0.4,1.2,0.6,2.1,0.7v-4.4
		C266,14,265.3,14.2,264.8,14.6z M271.3,17.6c0.5-0.4,0.7-0.9,0.7-1.5s-0.2-1.1-0.7-1.5c-0.5-0.4-1.2-0.6-2.1-0.7v4.4
		C270.1,18.2,270.8,17.9,271.3,17.6z"/>
	<path class="st0" d="M278.2,21.4H276V10.7h2.3v6.9l4.9-6.9h2.3v10.7h-2.3v-7.2L278.2,21.4z"/>
	<path class="st0" d="M287,21.6v-2c0.6,0,1-0.2,1.3-0.7s0.5-1.4,0.7-2.7l0.6-5.5h7.6v10.7H295v-8.7h-3.2l-0.4,3.6
		c-0.1,1.1-0.3,2-0.6,2.7s-0.6,1.2-1,1.6c-0.4,0.4-0.8,0.6-1.2,0.8C288.1,21.5,287.6,21.6,287,21.6z"/>
	<path class="st0" d="M301.5,21.4h-2.2V10.7h2.3v6.9l4.9-6.9h2.3v10.7h-2.3v-7.2L301.5,21.4z"/>
	<path class="st0" d="M321,21.4h-2.6l-0.7-1.8h-4.6l-0.7,1.8h-2.6l4.1-10.7h2.8L321,21.4z M317.1,17.6l-1.7-4.6l-1.7,4.6H317.1z"/>
	<path class="st0" d="M321.3,21.6v-2c0.6,0,1-0.2,1.3-0.7s0.5-1.4,0.7-2.7l0.6-5.5h7.6v10.7h-2.3v-8.7H326l-0.4,3.6
		c-0.1,1.1-0.3,2-0.6,2.7s-0.6,1.2-1,1.6c-0.4,0.4-0.8,0.6-1.2,0.8C322.4,21.5,321.9,21.6,321.3,21.6z"/>
	<path class="st0" d="M149.9,40.6h-2.1l-0.8-2h-4.9l-0.8,2h-2.1l4.2-10.7h2.3L149.9,40.6z M146.5,36.9l-1.9-5.1l-1.9,5.1H146.5z"/>
	<path class="st0" d="M154.6,40.8c-1.2,0-2.1-0.4-2.9-1.1c-0.7-0.8-1.1-1.7-1.1-2.9c0-1.2,0.4-2.1,1.1-2.9s1.7-1.1,2.9-1.1
		c1.3,0,2.3,0.5,3,1.4l-1.1,1c-0.4-0.6-1-0.9-1.8-0.9c-0.7,0-1.3,0.2-1.7,0.7c-0.4,0.5-0.6,1.1-0.6,1.8c0,0.8,0.2,1.4,0.6,1.9
		c0.4,0.5,1,0.7,1.7,0.7c0.7,0,1.3-0.3,1.8-0.9l1.1,1C156.9,40.3,155.9,40.8,154.6,40.8z"/>
	<path class="st0" d="M162.1,40.6h-1.7v-6.3h-2.2v-1.5h6.1v1.5h-2.2V40.6z"/>
	<path class="st0" d="M169.9,40.8c-1,0-1.9-0.4-2.5-1.3v4h-1.7V32.9h1.7v1.1c0.6-0.8,1.4-1.2,2.5-1.2c1,0,1.8,0.4,2.5,1.1
		c0.6,0.7,1,1.7,1,3s-0.3,2.2-1,3C171.7,40.4,170.9,40.8,169.9,40.8z M169.4,39.3c0.7,0,1.2-0.2,1.6-0.7s0.6-1.1,0.6-1.9
		c0-0.8-0.2-1.4-0.6-1.8c-0.4-0.5-0.9-0.7-1.6-0.7c-0.4,0-0.8,0.1-1.1,0.3c-0.4,0.2-0.7,0.4-0.8,0.7v3.1c0.2,0.3,0.5,0.5,0.8,0.7
		C168.6,39.2,169,39.3,169.4,39.3z"/>
	<path class="st0" d="M181.3,40.6h-1.7v-0.8c-0.6,0.7-1.4,1-2.5,1c-0.7,0-1.3-0.2-1.9-0.7c-0.5-0.5-0.8-1.1-0.8-1.9
		c0-0.8,0.3-1.4,0.8-1.9c0.5-0.4,1.2-0.6,1.9-0.6c1.1,0,1.9,0.3,2.5,1v-1.2c0-0.4-0.2-0.8-0.5-1.1c-0.3-0.3-0.8-0.4-1.3-0.4
		c-0.9,0-1.6,0.3-2.3,1l-0.7-1.2c0.9-0.8,2-1.2,3.2-1.2c0.9,0,1.7,0.2,2.3,0.7c0.6,0.4,0.9,1.2,0.9,2.1V40.6z M177.8,39.6
		c0.8,0,1.5-0.3,1.8-0.8v-1.2c-0.4-0.5-1-0.8-1.8-0.8c-0.5,0-0.9,0.1-1.2,0.4c-0.3,0.3-0.5,0.6-0.5,1s0.2,0.7,0.5,1
		C176.9,39.5,177.3,39.6,177.8,39.6z"/>
	<path class="st0" d="M190.3,40.6h-1.9l-2-2.8l-2,2.8h-1.9l2.8-4l-2.7-3.8h1.9l1.8,2.6l1.8-2.6h1.9l-2.7,3.8L190.3,40.6z"/>
	<path class="st0" d="M197.9,40.6h-1.7v-0.8c-0.6,0.7-1.4,1-2.5,1c-0.7,0-1.3-0.2-1.9-0.7c-0.5-0.5-0.8-1.1-0.8-1.9
		c0-0.8,0.3-1.4,0.8-1.9c0.5-0.4,1.2-0.6,1.9-0.6c1.1,0,1.9,0.3,2.5,1v-1.2c0-0.4-0.2-0.8-0.5-1.1c-0.3-0.3-0.8-0.4-1.3-0.4
		c-0.9,0-1.6,0.3-2.3,1l-0.7-1.2c0.9-0.8,2-1.2,3.2-1.2c0.9,0,1.7,0.2,2.3,0.7c0.6,0.4,0.9,1.2,0.9,2.1V40.6z M194.3,39.6
		c0.8,0,1.5-0.3,1.8-0.8v-1.2c-0.4-0.5-1-0.8-1.8-0.8c-0.5,0-0.9,0.1-1.2,0.4c-0.3,0.3-0.5,0.6-0.5,1s0.2,0.7,0.5,1
		C193.5,39.5,193.9,39.6,194.3,39.6z"/>
	<path class="st0" d="M201.7,40.6H200v-7.7h1.7v3h3.6v-3h1.7v7.7h-1.7v-3.2h-3.6V40.6z"/>
	<path class="st0" d="M212.6,40.8c-1.2,0-2.1-0.4-2.9-1.1c-0.7-0.8-1.1-1.7-1.1-2.9c0-1.2,0.4-2.1,1.1-2.9c0.7-0.8,1.7-1.1,2.9-1.1
		c1.3,0,2.3,0.5,3,1.4l-1.1,1c-0.4-0.6-1-0.9-1.8-0.9c-0.7,0-1.3,0.2-1.7,0.7c-0.4,0.5-0.6,1.1-0.6,1.8c0,0.8,0.2,1.4,0.6,1.9
		s1,0.7,1.7,0.7c0.7,0,1.3-0.3,1.8-0.9l1.1,1C214.9,40.3,213.9,40.8,212.6,40.8z"/>
	<path class="st0" d="M224.3,40.6h-2.1l-2.4-3.2l-1.1,1.1v2.1h-1.7v-7.7h1.7v3.7l3.4-3.7h2.1l-3.2,3.5L224.3,40.6z"/>
	<path class="st0" d="M229,40.8c-1.2,0-2.2-0.4-2.9-1.2c-0.7-0.8-1.1-1.7-1.1-2.9c0-1.1,0.4-2.1,1.1-2.9c0.7-0.8,1.7-1.2,2.9-1.2
		c1.2,0,2.2,0.4,2.9,1.2c0.7,0.8,1.1,1.7,1.1,2.9c0,1.2-0.4,2.1-1.1,2.9C231.1,40.4,230.2,40.8,229,40.8z M229,39.3
		c0.7,0,1.2-0.2,1.6-0.7c0.4-0.5,0.6-1.1,0.6-1.8c0-0.7-0.2-1.3-0.6-1.8c-0.4-0.5-0.9-0.7-1.6-0.7c-0.7,0-1.2,0.2-1.6,0.7
		c-0.4,0.5-0.6,1.1-0.6,1.8c0,0.7,0.2,1.3,0.6,1.8C227.8,39.1,228.3,39.3,229,39.3z"/>
	<path class="st0" d="M240.5,32.9v1.5h-4.2v6.3h-1.7v-7.7H240.5z"/>
	<path class="st0" d="M245.4,40.8c-1.2,0-2.2-0.4-2.9-1.2c-0.7-0.8-1.1-1.7-1.1-2.9c0-1.1,0.4-2.1,1.1-2.9c0.7-0.8,1.7-1.2,2.9-1.2
		c1.2,0,2.2,0.4,2.9,1.2c0.7,0.8,1.1,1.7,1.1,2.9c0,1.2-0.4,2.1-1.1,2.9C247.5,40.4,246.6,40.8,245.4,40.8z M245.4,39.3
		c0.7,0,1.2-0.2,1.6-0.7c0.4-0.5,0.6-1.1,0.6-1.8c0-0.7-0.2-1.3-0.6-1.8c-0.4-0.5-0.9-0.7-1.6-0.7c-0.7,0-1.2,0.2-1.6,0.7
		c-0.4,0.5-0.6,1.1-0.6,1.8c0,0.7,0.2,1.3,0.6,1.8C244.2,39.1,244.7,39.3,245.4,39.3z"/>
	<path class="st0" d="M261,32.9v1.5h-4.2v6.3h-1.7v-7.7H261z"/>
	<path class="st0" d="M265.9,40.8c-1.2,0-2.2-0.4-2.9-1.2c-0.7-0.8-1.1-1.7-1.1-2.9c0-1.1,0.4-2.1,1.1-2.9c0.7-0.8,1.7-1.2,2.9-1.2
		c1.2,0,2.2,0.4,2.9,1.2c0.7,0.8,1.1,1.7,1.1,2.9c0,1.2-0.4,2.1-1.1,2.9C268.1,40.4,267.1,40.8,265.9,40.8z M265.9,39.3
		c0.7,0,1.2-0.2,1.6-0.7c0.4-0.5,0.6-1.1,0.6-1.8c0-0.7-0.2-1.3-0.6-1.8c-0.4-0.5-0.9-0.7-1.6-0.7c-0.7,0-1.2,0.2-1.6,0.7
		c-0.4,0.5-0.6,1.1-0.6,1.8c0,0.7,0.2,1.3,0.6,1.8C264.7,39.1,265.2,39.3,265.9,39.3z"/>
	<path class="st0" d="M275.1,40.8c-1.2,0-2.1-0.4-2.9-1.1c-0.7-0.8-1.1-1.7-1.1-2.9c0-1.2,0.4-2.1,1.1-2.9c0.7-0.8,1.7-1.1,2.9-1.1
		c1.3,0,2.3,0.5,3,1.4l-1.1,1c-0.4-0.6-1-0.9-1.8-0.9c-0.7,0-1.3,0.2-1.7,0.7c-0.4,0.5-0.6,1.1-0.6,1.8c0,0.8,0.2,1.4,0.6,1.9
		s1,0.7,1.7,0.7c0.7,0,1.3-0.3,1.8-0.9l1.1,1C277.4,40.3,276.4,40.8,275.1,40.8z"/>
	<path class="st0" d="M279.2,43.6l0.3-1.5c0.2,0.1,0.4,0.1,0.6,0.1c0.5,0,0.9-0.2,1.1-0.7l0.4-0.9l-3.2-7.8h1.8l2.3,5.8l2.3-5.8h1.8
		l-3.7,9.1c-0.5,1.1-1.3,1.7-2.7,1.7C279.8,43.7,279.5,43.7,279.2,43.6z"/>
	<path class="st0" d="M286.8,42.6v-3.4c0.4-0.1,0.6-0.3,0.8-0.6c0.2-0.3,0.3-1,0.5-1.9l0.5-3.8h6v6.3h0.8v3.4h-1.7v-2h-5.2v2H286.8z
		 M290,34.3l-0.3,2.5c-0.1,1-0.4,1.8-1,2.3h4.1v-4.8H290z"/>
	<path class="st0" d="M303.1,40.6h-1.7v-0.8c-0.6,0.7-1.4,1-2.5,1c-0.7,0-1.3-0.2-1.9-0.7c-0.5-0.5-0.8-1.1-0.8-1.9
		c0-0.8,0.3-1.4,0.8-1.9c0.5-0.4,1.2-0.6,1.9-0.6c1.1,0,1.9,0.3,2.5,1v-1.2c0-0.4-0.2-0.8-0.5-1.1c-0.3-0.3-0.8-0.4-1.3-0.4
		c-0.9,0-1.6,0.3-2.3,1l-0.7-1.2c0.9-0.8,2-1.2,3.2-1.2c0.9,0,1.7,0.2,2.3,0.7c0.6,0.4,0.9,1.2,0.9,2.1V40.6z M299.6,39.6
		c0.8,0,1.5-0.3,1.8-0.8v-1.2c-0.4-0.5-1-0.8-1.8-0.8c-0.5,0-0.9,0.1-1.2,0.4c-0.3,0.3-0.5,0.6-0.5,1s0.2,0.7,0.5,1
		C298.7,39.5,299.1,39.6,299.6,39.6z"/>
	<path class="st0" d="M309.4,40.8c-1,0-1.9-0.4-2.5-1.3v4h-1.7V32.9h1.7v1.1c0.6-0.8,1.4-1.2,2.5-1.2c1,0,1.8,0.4,2.5,1.1
		c0.6,0.7,1,1.7,1,3s-0.3,2.2-1,3S310.5,40.8,309.4,40.8z M308.9,39.3c0.7,0,1.2-0.2,1.6-0.7s0.6-1.1,0.6-1.9c0-0.8-0.2-1.4-0.6-1.8
		c-0.4-0.5-0.9-0.7-1.6-0.7c-0.4,0-0.8,0.1-1.1,0.3c-0.4,0.2-0.7,0.4-0.8,0.7v3.1c0.2,0.3,0.5,0.5,0.8,0.7
		C308.2,39.2,308.6,39.3,308.9,39.3z"/>
	<path class="st0" d="M318,40.8c-1.2,0-2.1-0.4-2.9-1.1c-0.7-0.8-1.1-1.7-1.1-2.9c0-1.2,0.4-2.1,1.1-2.9c0.7-0.8,1.7-1.1,2.9-1.1
		c1.3,0,2.3,0.5,3,1.4l-1.1,1c-0.4-0.6-1-0.9-1.8-0.9c-0.7,0-1.3,0.2-1.7,0.7c-0.4,0.5-0.6,1.1-0.6,1.8c0,0.8,0.2,1.4,0.6,1.9
		s1,0.7,1.7,0.7c0.7,0,1.3-0.3,1.8-0.9l1.1,1C320.3,40.3,319.3,40.8,318,40.8z"/>
	<path class="st0" d="M325.6,40.6h-1.7v-6.3h-2.2v-1.5h6.1v1.5h-2.2V40.6z"/>
	<path class="st0" d="M333.9,40.6h-4.7v-7.7h4.6c0.7,0,1.3,0.2,1.7,0.6c0.4,0.4,0.6,0.8,0.6,1.4c0,0.4-0.1,0.8-0.4,1.1
		s-0.6,0.5-0.9,0.6c0.4,0.1,0.8,0.3,1,0.7c0.3,0.4,0.4,0.8,0.4,1.2c0,0.6-0.2,1.1-0.6,1.5C335.2,40.4,334.6,40.6,333.9,40.6z
		 M333.5,35.9c0.3,0,0.5-0.1,0.6-0.2c0.2-0.1,0.2-0.3,0.2-0.6c0-0.2-0.1-0.4-0.2-0.6c-0.2-0.1-0.4-0.2-0.6-0.2h-2.7v1.6H333.5z
		 M333.5,39.1c0.3,0,0.5-0.1,0.7-0.2c0.2-0.2,0.3-0.4,0.3-0.6c0-0.2-0.1-0.5-0.3-0.6c-0.2-0.2-0.4-0.3-0.7-0.3h-2.7v1.7H333.5z"/>
	<path class="st0" d="M341.9,40.8c-1.2,0-2.1-0.4-2.9-1.1s-1.1-1.7-1.1-2.9c0-1.1,0.4-2.1,1.1-2.9c0.7-0.8,1.7-1.2,2.8-1.2
		c1.1,0,2.1,0.4,2.8,1.2c0.7,0.8,1,1.8,1,3v0.4h-6c0.1,0.6,0.3,1.1,0.8,1.5s1,0.6,1.7,0.6c0.4,0,0.8-0.1,1.2-0.2
		c0.4-0.1,0.7-0.4,1-0.6l0.8,1.1C344.2,40.4,343.2,40.8,341.9,40.8z M343.9,36.1c0-0.5-0.2-1-0.6-1.4s-0.9-0.6-1.6-0.6
		c-0.7,0-1.2,0.2-1.6,0.6c-0.4,0.4-0.6,0.9-0.6,1.4H343.9z"/>
	<path class="st0" d="M348.9,40.6h-1.7v-7.7h1.7v3h3.6v-3h1.7v7.7h-1.7v-3.2h-3.6V40.6z"/>
	<path class="st0" d="M358,40.6h-1.7v-7.7h1.7v3h3.6v-3h1.7v7.7h-1.7v-3.2H358V40.6z"/>
	<path class="st0" d="M368.9,40.8c-1.2,0-2.2-0.4-2.9-1.2c-0.7-0.8-1.1-1.7-1.1-2.9c0-1.1,0.4-2.1,1.1-2.9c0.7-0.8,1.7-1.2,2.9-1.2
		c1.2,0,2.2,0.4,2.9,1.2c0.7,0.8,1.1,1.7,1.1,2.9c0,1.2-0.4,2.1-1.1,2.9C371.1,40.4,370.1,40.8,368.9,40.8z M368.9,39.3
		c0.7,0,1.2-0.2,1.6-0.7c0.4-0.5,0.6-1.1,0.6-1.8c0-0.7-0.2-1.3-0.6-1.8c-0.4-0.5-0.9-0.7-1.6-0.7c-0.7,0-1.2,0.2-1.6,0.7
		c-0.4,0.5-0.6,1.1-0.6,1.8c0,0.7,0.2,1.3,0.6,1.8C367.7,39.1,368.2,39.3,368.9,39.3z"/>
	<path class="st0" d="M380.4,32.9v1.5h-4.2v6.3h-1.7v-7.7H380.4z"/>
	<path class="st0" d="M385.3,40.8c-1.2,0-2.2-0.4-2.9-1.2c-0.7-0.8-1.1-1.7-1.1-2.9c0-1.1,0.4-2.1,1.1-2.9c0.7-0.8,1.7-1.2,2.9-1.2
		c1.2,0,2.2,0.4,2.9,1.2c0.7,0.8,1.1,1.7,1.1,2.9c0,1.2-0.4,2.1-1.1,2.9C387.5,40.4,386.5,40.8,385.3,40.8z M385.3,39.3
		c0.7,0,1.2-0.2,1.6-0.7c0.4-0.5,0.6-1.1,0.6-1.8c0-0.7-0.2-1.3-0.6-1.8c-0.4-0.5-0.9-0.7-1.6-0.7c-0.7,0-1.2,0.2-1.6,0.7
		c-0.4,0.5-0.6,1.1-0.6,1.8c0,0.7,0.2,1.3,0.6,1.8C384.1,39.1,384.6,39.3,385.3,39.3z"/>
	<path class="st0" d="M141.9,59.8h-1.6v-7.7h1.7v5.2l3.6-5.2h1.7v7.7h-1.7v-5.3L141.9,59.8z"/>
	<path class="st0" d="M151.1,59.8h-1.7v-7.7h1.7v3h3.6v-3h1.7v7.7h-1.7v-3.2h-3.6V59.8z"/>
	<path class="st0" d="M159.6,59.8h-2.1l3.3-4.2l-3.2-3.5h2.1l2.8,3v-3h1.7v3l2.8-3h2.1l-3.2,3.5l3.3,4.2h-2.1l-2.4-3.2l-0.4,0.4v2.7
		h-1.7v-2.7l-0.4-0.4L159.6,59.8z"/>
	<path class="st0" d="M173.7,60c-1.2,0-2.1-0.4-2.9-1.1s-1.1-1.7-1.1-2.9c0-1.1,0.4-2.1,1.1-2.9c0.7-0.8,1.7-1.2,2.8-1.2
		c1.1,0,2.1,0.4,2.8,1.2c0.7,0.8,1,1.8,1,3v0.4h-6c0.1,0.6,0.3,1.1,0.8,1.5c0.4,0.4,1,0.6,1.7,0.6c0.4,0,0.8-0.1,1.2-0.2
		c0.4-0.1,0.7-0.4,1-0.6l0.8,1.1C176.1,59.6,175,60,173.7,60z M175.8,55.3c0-0.5-0.2-1-0.6-1.4c-0.4-0.4-0.9-0.6-1.6-0.6
		c-0.7,0-1.2,0.2-1.6,0.6c-0.4,0.4-0.6,0.9-0.6,1.4H175.8z"/>
	<path class="st0" d="M180.8,59.8h-1.7v-7.7h1.7v3h3.6v-3h1.7v7.7h-1.7v-3.2h-3.6V59.8z"/>
	<path class="st0" d="M191.7,60c-1.2,0-2.1-0.4-2.9-1.1s-1.1-1.7-1.1-2.9c0-1.1,0.4-2.1,1.1-2.9c0.7-0.8,1.7-1.2,2.8-1.2
		c1.1,0,2.1,0.4,2.8,1.2c0.7,0.8,1,1.8,1,3v0.4h-6c0.1,0.6,0.3,1.1,0.8,1.5c0.4,0.4,1,0.6,1.7,0.6c0.4,0,0.8-0.1,1.2-0.2
		c0.4-0.1,0.7-0.4,1-0.6l0.8,1.1C194.1,59.6,193,60,191.7,60z M193.8,55.3c0-0.5-0.2-1-0.6-1.4c-0.4-0.4-0.9-0.6-1.6-0.6
		c-0.7,0-1.2,0.2-1.6,0.6c-0.4,0.4-0.6,0.9-0.6,1.4H193.8z"/>
	<path class="st0" d="M201.2,60c-1,0-1.9-0.4-2.5-1.3v4h-1.7V52.1h1.7v1.1c0.6-0.8,1.4-1.2,2.5-1.2c1,0,1.8,0.4,2.5,1.1
		c0.6,0.7,1,1.7,1,3s-0.3,2.2-1,3C203.1,59.6,202.2,60,201.2,60z M200.7,58.5c0.7,0,1.2-0.2,1.6-0.7c0.4-0.5,0.6-1.1,0.6-1.9
		c0-0.8-0.2-1.4-0.6-1.8s-0.9-0.7-1.6-0.7c-0.4,0-0.8,0.1-1.1,0.3c-0.4,0.2-0.7,0.4-0.8,0.7v3.1c0.2,0.3,0.5,0.5,0.8,0.7
		C200,58.4,200.4,58.5,200.7,58.5z"/>
	<path class="st0" d="M208,59.8h-1.7v-7.7h1.7v3h3.6v-3h1.7v7.7h-1.7v-3.2H208V59.8z"/>
	<path class="st0" d="M218.9,60c-1.2,0-2.2-0.4-2.9-1.2c-0.7-0.8-1.1-1.7-1.1-2.9c0-1.1,0.4-2.1,1.1-2.9c0.7-0.8,1.7-1.2,2.9-1.2
		c1.2,0,2.2,0.4,2.9,1.2c0.7,0.8,1.1,1.7,1.1,2.9c0,1.2-0.4,2.1-1.1,2.9S220.1,60,218.9,60z M218.9,58.5c0.7,0,1.2-0.2,1.6-0.7
		c0.4-0.5,0.6-1.1,0.6-1.8c0-0.7-0.2-1.3-0.6-1.8c-0.4-0.5-0.9-0.7-1.6-0.7c-0.7,0-1.2,0.2-1.6,0.7c-0.4,0.5-0.6,1.1-0.6,1.8
		c0,0.7,0.2,1.3,0.6,1.8C217.7,58.3,218.2,58.5,218.9,58.5z"/>
	<path class="st0" d="M227.8,56.7H224v-1.4h3.8V56.7z"/>
	<path class="st0" d="M232.9,60c-1.2,0-2.1-0.4-2.9-1.1c-0.7-0.8-1.1-1.7-1.1-2.9c0-1.2,0.4-2.1,1.1-2.9c0.7-0.8,1.7-1.1,2.9-1.1
		c1.3,0,2.3,0.5,3,1.4l-1.1,1c-0.4-0.6-1-0.9-1.8-0.9c-0.7,0-1.3,0.2-1.7,0.7s-0.6,1.1-0.6,1.8c0,0.8,0.2,1.4,0.6,1.9
		c0.4,0.5,1,0.7,1.7,0.7c0.7,0,1.3-0.3,1.8-0.9l1.1,1C235.2,59.5,234.2,60,232.9,60z"/>
	<path class="st0" d="M240.4,59.8h-1.7v-6.3h-2.2v-1.5h6.1v1.5h-2.2V59.8z"/>
	<path class="st0" d="M248.2,60c-1,0-1.9-0.4-2.5-1.3v4H244V52.1h1.7v1.1c0.6-0.8,1.4-1.2,2.5-1.2c1,0,1.8,0.4,2.5,1.1
		c0.6,0.7,1,1.7,1,3s-0.3,2.2-1,3S249.2,60,248.2,60z M247.7,58.5c0.7,0,1.2-0.2,1.6-0.7c0.4-0.5,0.6-1.1,0.6-1.9
		c0-0.8-0.2-1.4-0.6-1.8s-0.9-0.7-1.6-0.7c-0.4,0-0.8,0.1-1.1,0.3c-0.4,0.2-0.7,0.4-0.8,0.7v3.1c0.2,0.3,0.5,0.5,0.8,0.7
		C246.9,58.4,247.3,58.5,247.7,58.5z"/>
	<path class="st0" d="M256.8,60c-1.2,0-2.2-0.4-2.9-1.2c-0.7-0.8-1.1-1.7-1.1-2.9c0-1.1,0.4-2.1,1.1-2.9c0.7-0.8,1.7-1.2,2.9-1.2
		c1.2,0,2.2,0.4,2.9,1.2c0.7,0.8,1.1,1.7,1.1,2.9c0,1.2-0.4,2.1-1.1,2.9S258,60,256.8,60z M256.8,58.5c0.7,0,1.2-0.2,1.6-0.7
		c0.4-0.5,0.6-1.1,0.6-1.8c0-0.7-0.2-1.3-0.6-1.8c-0.4-0.5-0.9-0.7-1.6-0.7c-0.7,0-1.2,0.2-1.6,0.7c-0.4,0.5-0.6,1.1-0.6,1.8
		c0,0.7,0.2,1.3,0.6,1.8C255.5,58.3,256.1,58.5,256.8,58.5z"/>
	<path class="st0" d="M264,59.8h-1.6v-7.7h1.7v5.2l3.6-5.2h1.7v7.7h-1.7v-5.3L264,59.8z"/>
	<path class="st0" d="M274.6,59.8h-1.7v-6.3h-2.2v-1.5h6.1v1.5h-2.2V59.8z"/>
	<path class="st0" d="M281.8,60c-1.2,0-2.1-0.4-2.9-1.1s-1.1-1.7-1.1-2.9c0-1.1,0.4-2.1,1.1-2.9c0.7-0.8,1.7-1.2,2.8-1.2
		c1.1,0,2.1,0.4,2.8,1.2c0.7,0.8,1,1.8,1,3v0.4h-6c0.1,0.6,0.3,1.1,0.8,1.5s1,0.6,1.7,0.6c0.4,0,0.8-0.1,1.2-0.2
		c0.4-0.1,0.7-0.4,1-0.6l0.8,1.1C284.1,59.6,283.1,60,281.8,60z M283.8,55.3c0-0.5-0.2-1-0.6-1.4s-0.9-0.6-1.6-0.6
		c-0.7,0-1.2,0.2-1.6,0.6c-0.4,0.4-0.6,0.9-0.6,1.4H283.8z"/>
	<path class="st0" d="M286.3,60v-1.4c0.3,0,0.6-0.2,0.8-0.6c0.2-0.4,0.4-1.1,0.5-2.1l0.5-3.8h6v7.7h-1.7v-6.3h-2.8l-0.3,2.5
		c-0.1,1.4-0.5,2.4-0.9,3C287.9,59.7,287.2,60,286.3,60z"/>
	<path class="st0" d="M296.2,52.1h1.7v2.8h2.7c0.8,0,1.5,0.2,1.9,0.7c0.4,0.5,0.7,1.1,0.7,1.8c0,0.7-0.2,1.3-0.7,1.8
		s-1.1,0.7-1.9,0.7h-4.4V52.1z M300.4,56.3h-2.5v2h2.5c0.3,0,0.6-0.1,0.8-0.3c0.2-0.2,0.3-0.4,0.3-0.7s-0.1-0.5-0.3-0.7
		C301,56.4,300.7,56.3,300.4,56.3z"/>
	<path class="st0" d="M306.5,59.8h-1.7v-7.7h1.7v3h3.6v-3h1.7v7.7h-1.7v-3.2h-3.6V59.8z"/>
	<path class="st0" d="M317.4,60c-1.2,0-2.2-0.4-2.9-1.2c-0.7-0.8-1.1-1.7-1.1-2.9c0-1.1,0.4-2.1,1.1-2.9c0.7-0.8,1.7-1.2,2.9-1.2
		c1.2,0,2.2,0.4,2.9,1.2c0.7,0.8,1.1,1.7,1.1,2.9c0,1.2-0.4,2.1-1.1,2.9S318.6,60,317.4,60z M317.4,58.5c0.7,0,1.2-0.2,1.6-0.7
		c0.4-0.5,0.6-1.1,0.6-1.8c0-0.7-0.2-1.3-0.6-1.8c-0.4-0.5-0.9-0.7-1.6-0.7c-0.7,0-1.2,0.2-1.6,0.7c-0.4,0.5-0.6,1.1-0.6,1.8
		c0,0.7,0.2,1.3,0.6,1.8C316.2,58.3,316.7,58.5,317.4,58.5z"/>
	<path class="st0" d="M329,52.1v1.5h-4.2v6.3h-1.7v-7.7H329z"/>
	<path class="st0" d="M333.8,60c-1.2,0-2.2-0.4-2.9-1.2c-0.7-0.8-1.1-1.7-1.1-2.9c0-1.1,0.4-2.1,1.1-2.9c0.7-0.8,1.7-1.2,2.9-1.2
		c1.2,0,2.2,0.4,2.9,1.2c0.7,0.8,1.1,1.7,1.1,2.9c0,1.2-0.4,2.1-1.1,2.9S335,60,333.8,60z M333.8,58.5c0.7,0,1.2-0.2,1.6-0.7
		c0.4-0.5,0.6-1.1,0.6-1.8c0-0.7-0.2-1.3-0.6-1.8c-0.4-0.5-0.9-0.7-1.6-0.7c-0.7,0-1.2,0.2-1.6,0.7c-0.4,0.5-0.6,1.1-0.6,1.8
		c0,0.7,0.2,1.3,0.6,1.8C332.6,58.3,333.1,58.5,333.8,58.5z"/>
	<path class="st0" d="M140,82l0.3-1.5c0.2,0.1,0.4,0.1,0.6,0.1c0.5,0,0.9-0.2,1.1-0.7l0.4-0.9l-3.2-7.8h1.8l2.3,5.8l2.3-5.8h1.8
		l-3.7,9.1c-0.5,1.1-1.3,1.7-2.7,1.7C140.5,82.1,140.2,82.1,140,82z"/>
	<path class="st0" d="M150,79h-1.7v-7.7h1.7v3h3.6v-3h1.7V79h-1.7v-3.2H150V79z"/>
	<path class="st0" d="M159,79h-1.6v-7.7h1.7v5.2l3.6-5.2h1.7V79h-1.7v-5.3L159,79z"/>
	<path class="st0" d="M171.2,79h-4.7v-7.7h4.6c0.7,0,1.3,0.2,1.7,0.6c0.4,0.4,0.6,0.8,0.6,1.4c0,0.4-0.1,0.8-0.4,1.1
		c-0.2,0.3-0.6,0.5-0.9,0.6c0.4,0.1,0.8,0.3,1,0.7c0.3,0.4,0.4,0.8,0.4,1.2c0,0.6-0.2,1.1-0.6,1.5C172.6,78.8,172,79,171.2,79z
		 M170.8,74.3c0.3,0,0.5-0.1,0.6-0.2c0.2-0.1,0.2-0.3,0.2-0.6c0-0.2-0.1-0.4-0.2-0.6c-0.2-0.1-0.4-0.2-0.6-0.2h-2.7v1.6H170.8z
		 M170.9,77.5c0.3,0,0.5-0.1,0.7-0.2c0.2-0.2,0.3-0.4,0.3-0.6c0-0.2-0.1-0.5-0.3-0.6c-0.2-0.2-0.4-0.3-0.7-0.3h-2.7v1.7H170.9z"/>
	<path class="st0" d="M179.2,79.2c-1.2,0-2.1-0.4-2.9-1.1s-1.1-1.7-1.1-2.9c0-1.1,0.4-2.1,1.1-2.9c0.7-0.8,1.7-1.2,2.8-1.2
		c1.1,0,2.1,0.4,2.8,1.2c0.7,0.8,1,1.8,1,3v0.4h-6c0.1,0.6,0.3,1.1,0.8,1.5c0.4,0.4,1,0.6,1.7,0.6c0.4,0,0.8-0.1,1.2-0.2
		c0.4-0.1,0.7-0.4,1-0.6l0.8,1.1C181.6,78.8,180.5,79.2,179.2,79.2z M181.3,74.5c0-0.5-0.2-1-0.6-1.4c-0.4-0.4-0.9-0.6-1.6-0.6
		c-0.7,0-1.2,0.2-1.6,0.6c-0.4,0.4-0.6,0.9-0.6,1.4H181.3z"/>
	<path class="st0" d="M188.7,79.2c-1,0-1.9-0.4-2.5-1.3v4h-1.7V71.3h1.7v1.1c0.6-0.8,1.4-1.2,2.5-1.2c1,0,1.8,0.4,2.5,1.1
		c0.6,0.7,1,1.7,1,3s-0.3,2.2-1,3C190.6,78.8,189.7,79.2,188.7,79.2z M188.2,77.7c0.7,0,1.2-0.2,1.6-0.7c0.4-0.5,0.6-1.1,0.6-1.9
		c0-0.8-0.2-1.4-0.6-1.8s-0.9-0.7-1.6-0.7c-0.4,0-0.8,0.1-1.1,0.3c-0.4,0.2-0.7,0.4-0.8,0.7v3.1c0.2,0.3,0.5,0.5,0.8,0.7
		C187.5,77.6,187.9,77.7,188.2,77.7z"/>
	<path class="st0" d="M197.3,79.2c-1.2,0-2.1-0.4-2.9-1.1c-0.7-0.8-1.1-1.7-1.1-2.9c0-1.2,0.4-2.1,1.1-2.9s1.7-1.1,2.9-1.1
		c1.3,0,2.3,0.5,3,1.4l-1.1,1c-0.4-0.6-1-0.9-1.8-0.9c-0.7,0-1.3,0.2-1.7,0.7c-0.4,0.5-0.6,1.1-0.6,1.8c0,0.8,0.2,1.4,0.6,1.9
		c0.4,0.5,1,0.7,1.7,0.7c0.7,0,1.3-0.3,1.8-0.9l1.1,1C199.6,78.7,198.6,79.2,197.3,79.2z"/>
	<path class="st0" d="M203.4,79h-1.6v-7.7h1.7v5.2l3.6-5.2h1.7V79H207v-5.3L203.4,79z"/>
	<path class="st0" d="M214,79h-1.7v-6.3h-2.2v-1.5h6.1v1.5H214V79z"/>
	<path class="st0" d="M221.1,79.2c-1.2,0-2.1-0.4-2.9-1.1s-1.1-1.7-1.1-2.9c0-1.1,0.4-2.1,1.1-2.9c0.7-0.8,1.7-1.2,2.8-1.2
		c1.1,0,2.1,0.4,2.8,1.2c0.7,0.8,1,1.8,1,3v0.4h-6c0.1,0.6,0.3,1.1,0.8,1.5s1,0.6,1.7,0.6c0.4,0,0.8-0.1,1.2-0.2
		c0.4-0.1,0.7-0.4,1-0.6l0.8,1.1C223.5,78.8,222.4,79.2,221.1,79.2z M223.2,74.5c0-0.5-0.2-1-0.6-1.4s-0.9-0.6-1.6-0.6
		c-0.7,0-1.2,0.2-1.6,0.6c-0.4,0.4-0.6,0.9-0.6,1.4H223.2z"/>
	<path class="st0" d="M229.6,79h-1.7v-6.3h-2.2v-1.5h6.1v1.5h-2.2V79z"/>
	<path class="st0" d="M239.6,79h-1.7v-0.8c-0.6,0.7-1.4,1-2.5,1c-0.7,0-1.3-0.2-1.9-0.7c-0.5-0.5-0.8-1.1-0.8-1.9
		c0-0.8,0.3-1.4,0.8-1.9c0.5-0.4,1.2-0.6,1.9-0.6c1.1,0,1.9,0.3,2.5,1V74c0-0.4-0.2-0.8-0.5-1.1c-0.3-0.3-0.8-0.4-1.3-0.4
		c-0.9,0-1.6,0.3-2.3,1l-0.7-1.2c0.9-0.8,2-1.2,3.2-1.2c0.9,0,1.7,0.2,2.3,0.7c0.6,0.4,0.9,1.2,0.9,2.1V79z M236,78
		c0.8,0,1.5-0.3,1.8-0.8v-1.2c-0.4-0.5-1-0.8-1.8-0.8c-0.5,0-0.9,0.1-1.2,0.4c-0.3,0.3-0.5,0.6-0.5,1s0.2,0.8,0.5,1
		C235.2,77.9,235.6,78,236,78z"/>
</g>
</svg>
