<?xml version="1.0" encoding="UTF-8" standalone="no"?>
<svg
   xmlns:dc="http://purl.org/dc/elements/1.1/"
   xmlns:cc="http://creativecommons.org/ns#"
   xmlns:rdf="http://www.w3.org/1999/02/22-rdf-syntax-ns#"
   xmlns:svg="http://www.w3.org/2000/svg"
   xmlns="http://www.w3.org/2000/svg"
   xmlns:sodipodi="http://sodipodi.sourceforge.net/DTD/sodipodi-0.dtd"
   xmlns:inkscape="http://www.inkscape.org/namespaces/inkscape"
   fill="#fff"
   class="w-5 h-5 md:w-6 md:h-6"
   viewBox="0 0 50 50"
   version="1.1"
   id="svg4"
   sodipodi:docname="telegram.svg"
   inkscape:version="0.92.4 (5da689c313, 2019-01-14)">
  <metadata
     id="metadata10">
    <rdf:RDF>
      <cc:Work
         rdf:about="">
        <dc:format>image/svg+xml</dc:format>
        <dc:type
           rdf:resource="http://purl.org/dc/dcmitype/StillImage" />
      </cc:Work>
    </rdf:RDF>
  </metadata>
  <defs
     id="defs8" />
  <sodipodi:namedview
     pagecolor="#ffffff"
     bordercolor="#666666"
     borderopacity="1"
     objecttolerance="10"
     gridtolerance="10"
     guidetolerance="10"
     inkscape:pageopacity="0"
     inkscape:pageshadow="2"
     inkscape:window-width="640"
     inkscape:window-height="480"
     id="namedview6"
     showgrid="false"
     inkscape:zoom="4.72"
     inkscape:cx="25"
     inkscape:cy="25"
     inkscape:window-x="2021"
     inkscape:window-y="283"
     inkscape:window-maximized="0"
     inkscape:current-layer="svg4" />
  <path
     d="M 46.137,6.552 C 45.387,5.916 44.209,5.825 42.991,6.314 H 42.989 C 41.708,6.828 6.728,21.832 5.304,22.445 c -0.259,0.09 -2.521,0.934 -2.288,2.814 0.208,1.695 2.026,2.397 2.248,2.478 l 8.893,3.045 c 0.59,1.964 2.765,9.21 3.246,10.758 0.3,0.965 0.789,2.233 1.646,2.494 0.752,0.29 1.5,0.025 1.984,-0.355 l 5.437,-5.043 8.777,6.845 0.209,0.125 c 0.596,0.264 1.167,0.396 1.712,0.396 0.421,0 0.825,-0.079 1.211,-0.237 1.315,-0.54 1.841,-1.793 1.896,-1.935 L 46.831,9.753 c 0.4,-1.82 -0.156,-2.746 -0.694,-3.201 z M 22,32 19,40 16,30 39,13 Z"
     id="path2"
     style="fill:#000000"
     inkscape:connector-curvature="0" />
</svg>
