<?xml version="1.0" encoding="utf-8"?>
<!-- Generator: Adobe Illustrator 16.0.3, SVG Export Plug-In . SVG Version: 6.00 Build 0)  -->
<!DOCTYPE svg PUBLIC "-//W3C//DTD SVG 1.1//EN" "http://www.w3.org/Graphics/SVG/1.1/DTD/svg11.dtd">
<svg version="1.1" id="Layer_1" xmlns="http://www.w3.org/2000/svg" xmlns:xlink="http://www.w3.org/1999/xlink" x="0px" y="0px"
	 width="45px" height="45px" viewBox="0 0 45 45" enable-background="new 0 0 45 45" xml:space="preserve">
<linearGradient id="SVGID_1_" gradientUnits="userSpaceOnUse" x1="0" y1="22.5" x2="45" y2="22.5">
	<stop  offset="0" style="stop-color:#37AEE2"/>
	<stop  offset="1" style="stop-color:#1E96C8"/>
</linearGradient>
<rect fill="url(#SVGID_1_)" width="45" height="45"/>
<g transform="scale(3.4682)">
	<path fill="#FFFFFF" d="M2.7,6.431l4.369-1.8C7.5,4.444,8.963,3.844,8.963,3.844s0.675-0.263,0.619,0.375
		C9.562,4.481,9.413,5.4,9.263,6.394L8.794,9.338c0,0-0.037,0.431-0.356,0.506C8.119,9.919,7.594,9.581,7.5,9.506
		c-0.075-0.056-1.406-0.9-1.894-1.312c-0.131-0.113-0.281-0.338,0.019-0.6C6.3,6.975,7.106,6.206,7.594,5.719
		c0.225-0.225,0.45-0.75-0.487-0.112L4.463,7.387c0,0-0.3,0.188-0.863,0.019C3.038,7.238,2.381,7.012,2.381,7.012
		S1.931,6.731,2.7,6.431L2.7,6.431z"/>
</g>
</svg>
