<?xml version="1.0" encoding="utf-8"?>
<!DOCTYPE svg PUBLIC "-//W3C//DTD SVG 1.1//EN" "http://www.w3.org/Graphics/SVG/1.1/DTD/svg11.dtd">
<svg version="1.1" id="Layer_1" xmlns="http://www.w3.org/2000/svg" xmlns:xlink="http://www.w3.org/1999/xlink" x="0px" y="0px"
	 width="45px" height="45px" viewBox="0 0 45 45" enable-background="new 0 0 45 45" xml:space="preserve">
<path fill="#5181B8" d="M0,0v45h45V0H0z M36.641,31.398l-4.156,0.059c0,0-0.894,0.18-2.068-0.637
	c-1.555-1.078-3.021-3.883-4.163-3.518c-1.158,0.373-1.122,2.895-1.122,2.895s0.009,0.539-0.255,0.826
	c-0.288,0.313-0.85,0.375-0.85,0.375h-1.86c0,0-4.104,0.25-7.719-3.555c-3.942-4.148-7.424-12.383-7.424-12.383
	s-0.2-0.54,0.018-0.801c0.245-0.294,0.913-0.313,0.913-0.313l4.446-0.029c0,0,0.419,0.07,0.719,0.293
	c0.247,0.185,0.386,0.527,0.386,0.527s0.719,1.837,1.671,3.499c1.857,3.246,2.723,3.955,3.354,3.607
	c0.919-0.507,0.644-4.587,0.644-4.587s0.017-1.481-0.463-2.141c-0.371-0.511-1.071-0.66-1.381-0.702
	c-0.25-0.033,0.16-0.621,0.692-0.885c0.801-0.396,2.214-0.418,3.884-0.4c1.301,0.014,1.676,0.095,2.184,0.219
	c1.533,0.375,1.013,1.819,1.013,5.286c0,1.109-0.198,2.671,0.595,3.188c0.341,0.223,1.174,0.033,3.258-3.543
	c0.987-1.695,1.729-3.688,1.729-3.688s0.161-0.354,0.413-0.508c0.257-0.155,0.604-0.107,0.604-0.107l4.68-0.029
	c0,0,1.406-0.169,1.634,0.472c0.239,0.674-0.525,2.246-2.438,4.822c-3.139,4.229-3.488,3.835-0.882,6.28
	c2.49,2.336,3.006,3.473,3.09,3.613C38.814,31.264,36.641,31.398,36.641,31.398z"/>
</svg>
