<?xml version="1.0" encoding="utf-8"?>
<!-- Generator: Adobe Illustrator 16.0.3, SVG Export Plug-In . SVG Version: 6.00 Build 0)  -->
<!DOCTYPE svg PUBLIC "-//W3C//DTD SVG 1.1//EN" "http://www.w3.org/Graphics/SVG/1.1/DTD/svg11.dtd">
<svg version="1.1" id="Layer_1" xmlns="http://www.w3.org/2000/svg" xmlns:xlink="http://www.w3.org/1999/xlink" x="0px" y="0px"
	 width="45px" height="45px" viewBox="0 0 45 45" enable-background="new 0 0 45 45" xml:space="preserve">
<rect fill="#FF0000" width="45" height="45"/>
<path fill="#FFFFFF" d="M38.91,14.241c-0.396-1.476-1.564-2.644-3.04-3.04c-2.664-0.727-13.392-0.727-13.392-0.727
	s-10.728,0.022-13.392,0.749c-1.476,0.397-2.644,1.563-3.04,3.04C5.342,16.928,5.342,22.5,5.342,22.5s0,5.573,0.728,8.26
	c0.396,1.476,1.563,2.643,3.039,3.039c2.666,0.728,13.392,0.728,13.392,0.728s10.728,0,13.393-0.728
	c1.476-0.396,2.644-1.563,3.039-3.039c0.727-2.666,0.727-8.26,0.727-8.26S39.636,16.928,38.91,14.241z"/>
<polygon fill="#FF0000" points="19.064,27.655 27.963,22.5 19.064,17.346 "/>
</svg>
