<svg width="14" height="18" viewBox="0 0 14 18" fill="none" xmlns="http://www.w3.org/2000/svg">
<path d="M7.51074 0.0605469C3.21698 0.165068 -0.305091 4.74307 1.45594 9.13294C2.72231 12.2895 5.01759 15.1324 7.29308 17.5573C7.4118 17.6827 7.60967 17.6827 7.70861 17.5573C9.92474 15.1742 12.1607 12.4149 13.4666 9.34198C15.3463 4.9103 11.9232 0.165068 7.51074 0.0605469ZM7.51074 10.3036C5.84864 10.22 4.26568 8.84028 4.34483 6.95891C4.42398 5.09844 5.69034 3.76058 7.43159 3.63515C7.45138 3.63515 7.49095 3.63515 7.51074 3.63515C7.55031 3.63515 7.5701 3.63515 7.58988 3.63515C9.21241 3.76058 10.7558 5.11935 10.6766 6.95891C10.5975 8.71485 9.29156 10.3872 7.51074 10.3036Z" fill="#FF2000"/>
</svg>
