<?xml version="1.0" encoding="UTF-8" standalone="no"?>
<!-- Generator: Adobe Illustrator 19.0.0, SVG Export Plug-In . SVG Version: 6.00 Build 0)  -->

<svg
   xmlns:dc="http://purl.org/dc/elements/1.1/"
   xmlns:cc="http://creativecommons.org/ns#"
   xmlns:rdf="http://www.w3.org/1999/02/22-rdf-syntax-ns#"
   xmlns:svg="http://www.w3.org/2000/svg"
   xmlns="http://www.w3.org/2000/svg"
   xmlns:sodipodi="http://sodipodi.sourceforge.net/DTD/sodipodi-0.dtd"
   xmlns:inkscape="http://www.inkscape.org/namespaces/inkscape"
   version="1.1"
   id="Capa_1"
   x="0px"
   y="0px"
   viewBox="0 0 512 512"
   style="enable-background:new 0 0 512 512;"
   xml:space="preserve"
   sodipodi:docname="place.svg"
   inkscape:version="0.92.4 (5da689c313, 2019-01-14)"><metadata
   id="metadata49"><rdf:RDF><cc:Work
       rdf:about=""><dc:format>image/svg+xml</dc:format><dc:type
         rdf:resource="http://purl.org/dc/dcmitype/StillImage" /><dc:title></dc:title></cc:Work></rdf:RDF></metadata><defs
   id="defs47" /><sodipodi:namedview
   pagecolor="#ffffff"
   bordercolor="#666666"
   borderopacity="1"
   objecttolerance="10"
   gridtolerance="10"
   guidetolerance="10"
   inkscape:pageopacity="0"
   inkscape:pageshadow="2"
   inkscape:window-width="640"
   inkscape:window-height="480"
   id="namedview45"
   showgrid="false"
   inkscape:zoom="0.4609375"
   inkscape:cx="256"
   inkscape:cy="256"
   inkscape:window-x="2152"
   inkscape:window-y="361"
   inkscape:window-maximized="0"
   inkscape:current-layer="Capa_1" />
<g
   id="g6">
	<g
   id="g4">
		<path
   d="M425.951,89.021C386.864,32.451,324.917,0,256.006,0S125.148,32.451,86.061,89.021    c-38.895,56.284-47.876,127.541-24.072,190.496c6.367,17.192,16.488,33.895,30.01,49.547l150.378,176.634    c3.401,3.998,8.384,6.302,13.629,6.302c5.245,0,10.228-2.303,13.629-6.302l150.336-176.586    c13.582-15.742,23.69-32.427,30.004-49.481C473.827,216.562,464.846,145.305,425.951,89.021z M416.451,267.093    c-4.869,13.158-12.818,26.167-23.613,38.68c-0.03,0.03-0.06,0.06-0.084,0.096L256.006,466.487L119.174,305.768    c-10.789-12.502-18.738-25.51-23.655-38.794c-19.686-52.065-12.215-110.981,19.991-157.592    c32.307-46.76,83.519-73.578,140.496-73.578c56.976,0,108.182,26.817,140.49,73.578    C428.708,155.993,436.185,214.909,416.451,267.093z"
   id="path2" />
	</g>
</g>
<g
   id="g12">
	<g
   id="g10">
		<path
   d="M256.006,106.219c-55.276,0-100.252,44.97-100.252,100.252s44.97,100.252,100.252,100.252s100.252-44.97,100.252-100.252    C356.258,151.195,311.282,106.219,256.006,106.219z M256.006,270.918c-35.536,0-64.448-28.912-64.448-64.448    c0-35.536,28.912-64.448,64.448-64.448c35.536,0,64.448,28.912,64.448,64.448S291.542,270.918,256.006,270.918z"
   id="path8" />
	</g>
</g>
<g
   id="g14">
</g>
<g
   id="g16">
</g>
<g
   id="g18">
</g>
<g
   id="g20">
</g>
<g
   id="g22">
</g>
<g
   id="g24">
</g>
<g
   id="g26">
</g>
<g
   id="g28">
</g>
<g
   id="g30">
</g>
<g
   id="g32">
</g>
<g
   id="g34">
</g>
<g
   id="g36">
</g>
<g
   id="g38">
</g>
<g
   id="g40">
</g>
<g
   id="g42">
</g>
</svg>